<svg width="61" height="61" viewBox="0 0 61 61" fill="none" xmlns="http://www.w3.org/2000/svg">
<g id="Oeko_tex_-_umbrella_brand_-_11_2022 1" clip-path="url(#clip0_1_80820)">
<path id="Vector" d="M8.9934 52.0197C15.5336 58.5616 23.7086 61.0005 30.6657 61.0005C39.1422 61.0005 47.6765 57.5718 52.9825 51.4746C58.2893 45.3775 61.0001 37.7018 61.0001 26.8276V-0.000244141H34.1794C23.1211 -0.000244141 16.0502 3.38546 12.2926 5.89602C8.40576 8.50702 1.50677 15.4937 0.201365 26.8556C-0.831263 35.8077 2.10894 45.1475 8.9934 52.0191" fill="#00A687"/>
<path id="Vector_2" d="M43.4884 33.8143C43.0724 33.5991 42.6708 33.4843 42.2836 33.4843C41.9251 33.4843 41.6382 33.5561 41.4087 33.6995C41.1792 33.843 40.9641 34.1012 40.7346 34.4886L39.0995 37.3291L37.4932 34.3021C37.2207 33.757 36.776 33.4844 36.1593 33.4844C35.7577 33.4844 35.2701 33.6135 34.7107 33.8574L37.6222 39.1655L34.3377 44.7462H36.819L38.9417 41.0592L40.6485 43.9141C40.8636 44.2871 41.1075 44.5597 41.3513 44.7032C41.5951 44.8466 41.925 44.9327 42.3123 44.9327C42.7139 44.9327 43.1585 44.8466 43.6175 44.6888L40.376 39.0938L43.4884 33.8143ZM31.9716 42.9671H28.4289V39.8827H31.9429V38.1037H28.4289V35.3493H31.699C32.201 35.3493 32.5739 35.2632 32.7891 35.0767C33.0042 34.9045 33.119 34.6033 33.119 34.1729C33.119 33.929 33.1046 33.7281 33.0759 33.556H26.1628V44.7464H33.3485C33.3628 44.646 33.3628 44.5599 33.3772 44.4739C33.3772 44.3878 33.3915 44.2874 33.3915 44.1582C33.3915 43.7852 33.2768 43.484 33.033 43.2831C32.7461 43.0679 32.4162 42.9675 31.9716 42.9675L31.9716 42.9671ZM16.9544 33.5561C16.5241 33.5561 16.1799 33.6708 15.9218 33.886C15.6636 34.1012 15.5345 34.4025 15.5345 34.7611C15.5345 35.005 15.5489 35.2346 15.5775 35.4354H19.0484V44.746H21.3433V35.4354H23.4373C23.8676 35.4354 24.1975 35.335 24.4413 35.1198C24.6851 34.9189 24.7998 34.632 24.7998 34.2734C24.7998 34.0295 24.7855 33.7856 24.7568 33.5561H16.9544ZM47.7767 36.3535C47.834 36.3105 47.8914 36.2531 47.9488 36.1814C48.0062 36.1096 48.0348 36.0379 48.0635 35.9518C48.0922 35.8657 48.1066 35.7653 48.1066 35.6506C48.1066 35.378 48.0205 35.1771 47.834 35.0337C47.6476 34.9046 47.3607 34.8328 46.9591 34.8328C46.8587 34.8328 46.744 34.8328 46.6149 34.8472C46.4858 34.8615 46.3568 34.8615 46.2277 34.8759V37.6303H46.8014V36.5831H47.0309L47.5042 37.3864C47.5615 37.4869 47.6189 37.5586 47.6906 37.6016C47.7623 37.6447 47.8484 37.6734 47.9488 37.6734C48.0062 37.6734 48.0492 37.659 48.1209 37.659C48.1783 37.6447 48.2357 37.6303 48.2787 37.6016L47.5902 36.4539C47.6476 36.4396 47.7193 36.3966 47.7767 36.3535ZM47.3751 36.0809C47.2747 36.1527 47.1456 36.1957 46.9878 36.1957H46.8014V35.2345C46.8301 35.2345 46.8587 35.2345 46.8874 35.2202H47.0165C47.1743 35.2202 47.289 35.2489 47.3894 35.3206C47.4755 35.3923 47.5185 35.5071 47.5185 35.6793C47.5185 35.8801 47.4611 35.9949 47.3751 36.0809ZM47.0739 33.4843C45.5249 33.4843 44.277 34.7468 44.277 36.3105C44.277 37.8742 45.5392 39.1367 47.0739 39.1367C48.6229 39.1367 49.8851 37.8742 49.8851 36.3105C49.8851 34.7468 48.6229 33.4843 47.0739 33.4843ZM47.0739 38.4767C45.8835 38.4767 44.9225 37.5012 44.9225 36.3104C44.9225 35.1197 45.8835 34.1441 47.0739 34.1441C48.2643 34.1441 49.2253 35.1196 49.2253 36.3104C49.2396 37.5011 48.2643 38.4767 47.0739 38.4767ZM49.7703 19.5972C48.9097 18.5786 47.6906 18.0765 46.1129 18.0765C45.0803 18.0765 44.1767 18.306 43.4165 18.7651C42.6564 19.2242 42.0683 19.8985 41.6381 20.7735C41.2221 21.663 41.007 22.6959 41.007 23.8723C41.007 25.0631 41.1935 26.1103 41.5807 26.9998C41.968 27.8893 42.5273 28.5779 43.2588 29.0513C44.0046 29.5248 44.9083 29.7686 45.9839 29.7686C47.6047 29.7686 48.8667 29.2522 49.7417 28.2049C50.6166 27.1576 51.0612 25.7087 51.0612 23.858C51.0469 22.0361 50.6309 20.6158 49.7703 19.5972ZM48.0205 26.8851C47.5615 27.6024 46.9018 27.961 46.0413 27.961C45.1807 27.961 44.5209 27.6024 44.0476 26.8851C43.5886 26.1678 43.3448 25.1636 43.3448 23.8867C43.3448 22.6242 43.5743 21.6344 44.0476 20.9602C44.5065 20.2715 45.195 19.9272 46.0843 19.9272C46.9305 19.9272 47.5903 20.2715 48.0348 20.9602C48.4794 21.6488 48.709 22.6243 48.709 23.8867C48.709 25.1636 48.4795 26.1677 48.0205 26.8851ZM34.4094 23.815C34.1942 24.4462 34.7249 24.9913 35.2269 25.6369L37.6652 28.8074C38.1098 29.3813 38.6978 29.6825 39.4436 29.6825C39.8883 29.6825 40.3185 29.5534 40.7488 29.2952L36.6181 23.6715L40.2755 18.7507C40.1177 18.5929 39.9312 18.4781 39.6874 18.3777C39.4436 18.2916 39.1998 18.2486 38.9273 18.2486C38.6117 18.2486 38.3392 18.3203 38.0954 18.4638C37.8515 18.6072 37.5934 18.8368 37.3639 19.1524L35.0978 22.1507C34.8826 22.4377 34.7105 22.6959 34.6101 22.9254C34.5097 23.155 34.3376 23.4419 34.4236 23.6141V19.5398C34.4236 18.679 33.936 18.2343 32.9463 18.2343C32.7742 18.2343 32.5017 18.263 32.1431 18.3204V29.4813H34.4093L34.4094 23.815ZM30.5369 29.2091C30.5369 29.123 30.5512 29.0226 30.5512 28.8935C30.5512 28.5205 30.4365 28.2192 30.1927 28.0184C29.9488 27.8175 29.619 27.7027 29.1744 27.7027H25.6317V24.6183H29.1457V22.8393H25.6317V20.0849H28.8875C29.3895 20.0849 29.7624 19.9988 29.9775 19.8123C30.1927 19.6401 30.3074 19.3389 30.3074 18.9085C30.3074 18.6646 30.2931 18.4637 30.2644 18.2916H23.3513V29.482H30.537C30.5226 29.3816 30.537 29.2955 30.537 29.2095L30.5369 29.2091ZM20.052 28.2049C20.9269 27.1576 21.3715 25.7086 21.3715 23.858C21.3715 22.036 20.9413 20.6157 20.0807 19.5971C19.2201 18.5785 18.001 18.0764 16.4233 18.0764C15.3907 18.0764 14.4871 18.306 13.7269 18.765C12.9668 19.2241 12.3787 19.8984 11.9485 20.7735C11.5325 21.6629 11.3174 22.6959 11.3174 23.8723C11.3174 25.063 11.5038 26.1102 11.8911 26.9997C12.2783 27.8892 12.8377 28.5778 13.5692 29.0513C14.315 29.5247 15.2186 29.7686 16.2943 29.7686C17.915 29.7686 19.1627 29.2521 20.052 28.2049ZM14.3723 26.8707C13.9133 26.1534 13.6695 25.1492 13.6695 23.8723C13.6695 22.6098 13.899 21.62 14.3723 20.9458C14.8313 20.2571 15.5197 19.9128 16.409 19.9128C17.2552 19.9128 17.915 20.2571 18.3596 20.9458C18.8042 21.6344 19.0337 22.6099 19.0337 23.8723C19.0337 25.1635 18.8042 26.1678 18.3452 26.8707C17.8863 27.588 17.2265 27.9466 16.366 27.9466C15.4911 27.9466 14.8313 27.588 14.3723 26.8707Z" fill="white"/>
</g>
<defs>
<clipPath id="clip0_1_80820">
<rect width="61" height="61" fill="white"/>
</clipPath>
</defs>
</svg>
