<?xml version="1.0" standalone="no"?>
<!DOCTYPE svg PUBLIC "-//W3C//DTD SVG 20010904//EN"
 "http://www.w3.org/TR/2001/REC-SVG-20010904/DTD/svg10.dtd">
<svg version="1.0" xmlns="http://www.w3.org/2000/svg"
 width="152.000000pt" height="150.000000pt" viewBox="0 0 152.000000 150.000000"
 preserveAspectRatio="xMidYMid meet">

<g transform="translate(0.000000,150.000000) scale(0.100000,-0.100000)"
fill="#000000" stroke="none">
<path d="M668 1433 c7 -3 16 -2 19 1 4 3 -2 6 -13 5 -11 0 -14 -3 -6 -6z"/>
<path d="M615 1420 c-18 -8 -17 -9 8 -9 16 -1 26 3 22 9 -3 6 -7 10 -8 9 -1 0
-11 -4 -22 -9z"/>
<path d="M430 1290 c-9 -6 -10 -10 -3 -10 6 0 15 5 18 10 8 12 4 12 -15 0z"/>
<path d="M963 723 c-30 -12 1 -53 40 -53 15 0 28 8 35 24 9 21 8 25 -11 30
-26 7 -47 7 -64 -1z"/>
<path d="M534 702 c-5 -4 -10 -17 -10 -29 0 -19 6 -23 31 -23 35 0 55 15 55
42 0 14 -8 18 -32 18 -18 0 -38 -4 -44 -8z"/>
<path d="M1176 575 c-9 -26 -7 -32 5 -12 6 10 9 21 6 23 -2 3 -7 -2 -11 -11z"/>
<path d="M320 556 c0 -2 7 -7 16 -10 8 -3 12 -2 9 4 -6 10 -25 14 -25 6z"/>
<path d="M395 490 c10 -11 20 -20 23 -20 3 0 -3 9 -13 20 -10 11 -20 20 -23
20 -3 0 3 -9 13 -20z"/>
<path d="M469 257 l-54 -30 3 -71 c1 -39 5 -81 8 -93 l4 -23 330 0 c377 0 338
-12 341 109 l2 75 -52 29 c-58 33 -52 34 -151 -27 -30 -19 -75 -42 -99 -52
l-44 -17 -103 53 c-57 29 -104 56 -104 60 0 20 -30 15 -81 -13z"/>
<path d="M285 100 c-4 -6 -10 -8 -14 -6 -4 3 -5 -11 -3 -30 2 -19 7 -36 11
-39 4 -2 5 10 3 27 -3 22 0 35 14 45 10 7 13 13 7 13 -7 0 -15 -5 -18 -10z"/>
<path d="M236 93 c-4 -4 -15 -8 -24 -8 -11 0 -18 -9 -18 -23 -1 -18 -1 -19 3
-2 6 26 23 26 23 1 0 -35 18 -32 22 4 4 38 4 38 -6 28z"/>
<path d="M327 93 c-9 -9 -9 -63 1 -63 4 0 7 16 7 35 0 19 0 35 -1 35 0 0 -4
-3 -7 -7z"/>
<path d="M1154 86 c-11 -28 0 -61 21 -61 11 -1 27 -5 35 -10 13 -8 13 -7 1 8
-7 9 -11 29 -9 45 3 23 0 28 -19 30 -13 1 -26 -5 -29 -12z m36 -26 c0 -20 -5
-30 -15 -30 -10 0 -15 10 -15 30 0 20 5 30 15 30 10 0 15 -10 15 -30z"/>
<path d="M1242 60 c0 -19 2 -27 5 -17 2 9 2 25 0 35 -3 9 -5 1 -5 -18z"/>
<path d="M1292 58 c2 -12 10 -23 18 -25 12 -4 13 -3 1 5 -8 6 -11 17 -8 26 4
9 2 16 -4 16 -6 0 -9 -10 -7 -22z"/>
</g>
</svg>
