<svg width="631" height="420" viewBox="0 0 631 420" fill="none" xmlns="http://www.w3.org/2000/svg">
<path opacity="0.4" d="M68.9226 367.937C68.8111 365.378 68.6991 362.824 68.5876 360.265C71.2474 359.652 73.9093 359.042 76.7089 359.174C77.6258 359.207 78.5512 359.037 79.4673 358.917C84.152 358.289 88.8583 357.741 93.5198 356.981C96.0791 356.564 98.5615 356.032 101.042 354.983C104.736 353.414 108.836 352.623 112.758 351.49C113.509 351.276 114.316 351.142 114.982 350.78C117.581 349.334 120.147 347.944 123.43 348.265C123.471 348.269 123.511 348.273 123.553 348.279C123.567 348.281 123.58 348.282 123.593 348.283C124.65 348.387 125.809 348.057 126.882 347.764C128.635 347.291 128.823 346.064 128.467 345.009C130.247 343.727 131.772 342.493 133.44 341.458C135.183 340.373 136.953 339.24 139.009 339.441C139.674 339.506 140.366 339.709 141.099 340.1C141.522 340.326 141.951 340.445 142.381 340.487C143.362 340.583 144.344 340.272 145.265 339.899C146.079 339.574 146.86 339.422 147.628 339.497C148.125 339.545 148.618 339.689 149.109 339.94C150.021 340.409 150.942 340.655 151.86 340.745C153.838 340.938 155.809 340.405 157.682 339.775C159.386 339.202 160.887 338.93 162.624 339.1C162.857 339.123 163.096 339.156 163.339 339.193C163.543 339.226 163.751 339.254 163.957 339.274C165.926 339.466 167.99 339.135 170.008 339.196C173.344 339.314 176.674 339.9 179.978 338.896C180.468 339.105 180.939 339.221 181.391 339.265C182.938 339.416 184.297 338.722 185.681 337.907C186.348 337.52 187.224 337.301 188.018 337.229C190.559 337.014 192.709 335.972 194.99 335.035C196.862 334.264 199.137 334.186 201.255 334.013C203.384 333.833 205.635 334.281 207.233 332.432C207.421 332.218 207.948 332.106 208.31 332.142C208.333 332.144 208.355 332.149 208.378 332.151C210.983 332.559 213.614 332.905 216.17 333.492C214.445 333.237 212.701 333.048 210.975 332.825C210.964 332.824 210.955 332.823 210.943 332.822C210.585 332.787 210.033 332.912 209.841 333.135C208.255 334.999 206.022 334.627 203.911 334.866C201.817 335.104 199.556 335.249 197.699 336.067C195.436 337.059 193.297 338.146 190.783 338.451C189.998 338.547 189.126 338.794 188.467 339.197C187.048 340.069 185.649 340.823 184.046 340.666C183.647 340.627 183.236 340.533 182.809 340.369C179.534 341.475 176.219 341.015 172.918 341.038C170.774 341.053 168.564 341.526 166.481 341.322C166.421 341.316 166.358 341.31 166.298 341.302C166.219 341.292 166.143 341.285 166.065 341.277C164.132 341.088 162.529 341.415 160.684 342.107C158.713 342.848 156.629 343.486 154.547 343.282C153.754 343.204 152.96 343.005 152.174 342.643C151.746 342.445 151.316 342.331 150.884 342.289C150.062 342.208 149.228 342.391 148.359 342.776C147.392 343.206 146.357 343.573 145.325 343.472C144.955 343.436 144.587 343.341 144.222 343.165C143.583 342.859 142.973 342.693 142.386 342.635C140.243 342.426 138.414 343.674 136.618 344.863C134.964 345.961 133.45 347.246 131.682 348.593C132.037 349.606 131.849 350.818 130.11 351.373C129.032 351.716 127.868 352.106 126.804 352.047C123.486 351.858 120.903 353.392 118.293 354.95C117.638 355.34 116.83 355.514 116.086 355.767C112.196 357.078 108.117 358.101 104.449 359.842C101.99 361.013 99.5217 361.68 96.9777 362.241C92.3472 363.262 87.6701 364.089 83.0168 364.997C82.1064 365.175 81.182 365.403 80.2755 365.425C76.3621 365.517 72.692 367.006 68.9226 367.937ZM219.496 334.065C219.324 334.049 219.148 334.022 218.967 333.982C218.448 333.875 217.926 333.776 217.402 333.687C218.65 333.73 219.697 333.26 220.86 332.84C222.234 332.337 223.658 332.017 223.291 330.084C224.181 330.181 224.939 330.293 225.66 330.364C225.953 330.392 226.24 330.414 226.529 330.424C228.976 330.507 231.446 330.541 233.895 330.583C234.47 330.594 235.097 330.475 235.648 330.529C235.786 330.542 235.922 330.567 236.049 330.609C236.088 330.622 236.128 330.632 236.168 330.645C233.78 330.651 231.352 330.687 228.97 330.656C228.433 330.648 227.897 330.603 227.319 330.546C227.187 330.533 227.053 330.52 226.916 330.507C226.795 330.495 226.672 330.483 226.545 330.47C226.294 330.446 226.034 330.421 225.76 330.398C226.122 332.29 224.711 332.642 223.351 333.167C222.073 333.662 220.925 334.205 219.496 334.065ZM239.446 330.828C239.276 330.811 239.102 330.785 238.927 330.752C240.112 330.509 241.234 329.956 242.435 329.458C245.503 328.187 248.681 327.316 251.954 327.204C249.485 327.58 247.076 328.355 244.732 329.364C242.955 330.131 241.358 331.015 239.446 330.828ZM260.724 327.578C262.216 327.018 263.391 325.824 263.724 324.265C263.755 324.092 263.894 323.942 264.06 323.656C265.373 323.174 266.729 322.872 268.117 322.696C267.452 322.859 266.795 323.06 266.151 323.304C265.988 323.589 265.851 323.74 265.819 323.909C265.384 326.107 263.127 327.627 260.724 327.578ZM363.897 326.223C364.24 326.082 364.581 325.932 364.913 325.773C365.337 325.568 365.757 325.417 366.172 325.308C366.085 325.345 365.995 325.386 365.905 325.426C365.256 325.729 364.579 325.993 363.897 326.223ZM388.793 327.812C389.029 327.823 389.268 327.833 389.504 327.845C390.423 327.885 391.358 327.823 392.274 327.82C394.319 327.803 396.284 327.913 398.292 327.034C399.679 326.421 401.471 326.589 403.075 326.321C404.48 326.088 405.992 325.953 407.267 325.402C412.126 323.291 417.301 322.822 422.572 322.42C426.752 322.101 430.871 321.224 435.11 321.311C437.398 321.36 438.831 319.888 439.861 318.716C441.73 318.542 443.226 318.381 444.736 318.273C445.318 318.232 445.926 318.357 446.508 318.319C448.024 318.219 449.703 318.404 450.997 317.863C452.712 317.142 454.382 316.964 456.063 317.129C456.576 317.179 457.088 317.261 457.604 317.37C457.85 317.419 458.082 317.455 458.301 317.476C459.302 317.574 460.053 317.347 460.851 316.507C462.11 315.174 463.518 313.953 465.737 314.17C465.865 314.183 465.994 314.2 466.128 314.224C466.154 314.227 466.181 314.232 466.208 314.234C466.88 314.3 467.713 313.85 468.413 313.539C470.114 312.787 471.853 312.499 473.766 312.387C476.083 312.252 478.373 311.554 480.666 311.09C483.297 310.566 485.778 309.764 488.116 308.469C489.668 307.603 491.499 307.371 493.441 307.328C495.421 307.288 497.39 306.477 499.374 306.025C500.653 305.731 501.927 305.463 503.209 305.228C504.116 305.064 505.034 304.901 505.949 304.861C507.036 304.818 508.187 304.678 509.251 304.782C509.571 304.813 509.885 304.866 510.186 304.952C510.501 305.042 510.796 305.098 511.078 305.125C512.2 305.235 513.11 304.897 514.219 304.426C516.523 303.449 518.994 302.642 521.49 302.228C521.719 302.191 521.957 302.19 522.199 302.213C523.283 302.319 524.461 302.939 525.583 303.232C526.086 303.364 526.67 303.652 527.152 303.699C527.306 303.714 527.447 303.706 527.574 303.659C530.871 302.471 534.41 302.6 537.808 301.997C539.479 301.692 541.28 302.004 543.012 301.999C544.344 301.996 545.811 302.239 546.987 301.832C548.533 301.287 550.023 301.209 551.488 301.352C552.928 301.493 554.34 301.845 555.759 302.176C556.199 302.278 556.622 302.356 557.031 302.396C558.1 302.5 559.097 302.358 560.182 301.777C561.183 301.233 562.502 301.086 563.704 300.95C565.325 300.77 566.987 300.76 568.627 300.704C568.895 300.689 569.197 300.658 569.464 300.684C569.6 300.697 569.726 300.725 569.836 300.779C570.8 301.255 571.788 301.49 572.789 301.588C574.027 301.709 575.284 301.621 576.545 301.537C577.801 301.452 579.062 301.367 580.302 301.488C580.425 301.5 580.546 301.514 580.669 301.531C580.754 301.541 580.836 301.552 580.921 301.56C584.305 301.891 587.223 299.961 590.391 299.16C591.381 298.916 592.341 298.551 593.316 298.239C593.444 301.419 593.574 304.601 593.701 307.781C592.755 308.003 591.801 308.217 590.852 308.441C589.813 308.685 588.796 309.006 587.751 309.191C584.834 309.704 582.122 311.247 579.052 310.947C578.778 310.92 578.502 310.88 578.223 310.821C577.795 310.734 577.367 310.672 576.935 310.629C576.019 310.54 575.095 310.535 574.173 310.531C573.249 310.527 572.325 310.522 571.411 310.433C570.116 310.306 568.841 310.01 567.605 309.306C567.462 309.224 567.285 309.186 567.099 309.168C566.873 309.146 566.635 309.152 566.42 309.147C564.826 309.106 563.178 308.983 561.592 309.052C560.413 309.104 559.118 309.167 558.139 309.635C557.228 310.07 556.376 310.186 555.489 310.099C554.945 310.046 554.39 309.917 553.799 309.739C552.13 309.235 550.466 308.703 548.76 308.537C547.593 308.422 546.41 308.479 545.193 308.83C544.525 309.022 543.762 308.991 542.983 308.914C542.786 308.895 542.589 308.874 542.392 308.85C542.195 308.828 542.001 308.807 541.806 308.788C541.631 308.771 541.461 308.757 541.29 308.747C541.079 308.733 540.866 308.714 540.653 308.693C540.286 308.657 539.919 308.615 539.551 308.57C539.182 308.525 538.813 308.48 538.448 308.444C537.678 308.368 536.917 308.333 536.183 308.421C532.85 308.819 529.362 308.471 526.132 309.46C526.032 309.49 525.92 309.495 525.802 309.484C525.313 309.436 524.698 309.089 524.177 308.92C523.011 308.544 521.781 307.802 520.668 307.693C520.496 307.676 520.324 307.675 520.157 307.693C517.713 307.951 515.278 308.624 513.011 309.467C512 309.843 511.158 310.116 510.161 310.018C509.814 309.984 509.446 309.906 509.048 309.769C508.626 309.626 508.179 309.544 507.72 309.499C506.793 309.409 505.813 309.464 504.885 309.455C503.986 309.444 503.082 309.559 502.191 309.678C500.929 309.841 499.677 310.044 498.421 310.268C496.47 310.617 494.532 311.318 492.586 311.264C490.678 311.21 488.874 311.355 487.348 312.135C485.054 313.308 482.603 313.982 480.018 314.384C477.764 314.734 475.511 315.325 473.229 315.357C471.347 315.384 469.629 315.593 467.96 316.266C467.292 316.536 466.498 316.933 465.846 316.869C465.802 316.865 465.755 316.858 465.71 316.849C465.504 316.806 465.306 316.776 465.114 316.757C463.053 316.555 461.714 317.67 460.514 318.891C459.783 319.638 459.084 319.859 458.19 319.772C457.919 319.745 457.631 319.69 457.319 319.614C456.657 319.45 456 319.331 455.341 319.267C453.841 319.12 452.344 319.263 450.815 319.848C449.542 320.334 447.881 320.091 446.389 320.132C446.188 320.137 445.986 320.125 445.78 320.104C445.694 320.096 445.612 320.088 445.527 320.077C445.442 320.069 445.357 320.058 445.272 320.05C445.061 320.03 444.852 320.016 444.646 320.023C443.158 320.074 441.682 320.181 439.841 320.29C438.829 321.412 437.414 322.815 435.161 322.692C430.987 322.46 426.922 323.2 422.803 323.39C417.604 323.632 412.502 323.956 407.71 325.909C406.452 326.421 404.96 326.515 403.573 326.711C401.994 326.934 400.224 326.727 398.856 327.299C396.879 328.123 394.931 327.973 392.918 327.939C392.015 327.925 391.091 327.964 390.186 327.905C389.721 327.873 389.258 327.844 388.793 327.812Z" fill="url(#paint0_linear_1_149251)"/>
<path d="M588.639 109.559C587.926 109.564 587.227 109.482 586.585 108.877C586.195 108.493 585.019 108.5 584.311 108.688C580.816 109.628 577.344 110.062 573.702 109.559C572.265 109.364 570.839 109.566 569.402 110.594C568.157 111.488 566.304 112.294 564.336 111.679C563.698 111.479 563.041 111.417 562.376 111.354C561.578 111.281 560.765 111.203 559.951 110.886C557.735 110.032 554.91 111.594 554.175 113.701C553.813 114.744 553.184 115.146 552.02 115.365C547.894 116.135 543.809 117.237 539.52 116.643C539.136 116.594 538.702 116.71 538.311 116.823C536.78 117.284 535.536 117.336 534.109 116.207C533.06 115.38 531.269 115.262 529.78 114.933C528.197 114.588 526.58 114.202 524.964 114.152C523.952 114.124 522.839 114.571 521.894 115.035C521.01 115.466 520.327 116.24 519.491 116.785C517.649 117.977 514.768 117.666 513.559 115.999C512.679 114.771 511.808 114.387 510.072 114.451C507.742 114.541 505.525 114.438 503.326 115.471C502.193 116.011 500.725 115.965 499.426 116.215C498.82 116.332 498.06 116.376 497.685 116.725C495.666 118.615 493.218 118.133 490.794 117.971C489.354 117.873 487.893 117.816 486.462 117.927C484.334 118.092 482.4 117.781 480.467 116.977C478.755 116.26 477.102 116.496 475.155 116.984C472.558 117.648 469.65 117.515 466.905 117.389C465.091 117.302 463.707 117.698 462.317 118.645C461.61 119.117 460.683 119.652 459.886 119.615C457.528 119.481 455.41 120.167 453.31 120.95C450.177 122.109 447.095 121.945 443.995 120.957C441.698 120.219 439.561 120.451 437.652 121.971C436.254 123.087 434.795 123.783 432.943 122.607C432.484 122.316 431.598 122.406 430.963 122.536C428.428 123.05 425.918 123.618 423.311 123.062C423.109 123.025 422.856 122.932 422.715 123.004C420.487 124.127 418.189 123.889 415.883 123.65C414.509 123.506 413.133 123.363 411.769 123.51C409.345 123.77 406.635 123.087 404.307 122.271C401.64 121.321 398.976 121.074 396.184 121.208C395.681 121.238 395.118 121.474 394.679 121.345C393.816 121.098 392.976 120.72 392.205 120.287C391.376 119.836 390.637 119.255 389.848 118.752C389.175 118.32 388.479 117.925 388.036 117.653C385.802 117.681 383.665 117.612 381.557 117.763C380.74 117.819 379.853 118.241 379.201 118.706C378.112 119.493 377.189 120.463 376.024 121.511C374.655 119.975 373.335 120.484 372.097 121.233C370.845 121.995 369.472 122.05 368.052 122.282C365.963 122.627 363.917 123.413 361.99 124.255C360.928 124.71 360.138 124.716 359.09 124.406C356.428 123.639 354.015 122.718 351.933 120.844C350.241 119.304 347.885 118.361 345.221 119.934C344.844 120.16 344.243 120.071 343.627 119.982C343.277 119.93 342.923 119.877 342.602 119.884C341.623 119.908 340.503 119.774 339.702 120.152C337.276 121.28 334.741 121.062 332.222 120.992C331.589 120.973 331.004 120.416 330.347 120.236C329.833 120.087 329.235 120.148 327.891 120.066C328.902 120.8 329.456 121.026 329.692 121.409C330.315 122.46 330.252 123.571 329.402 124.537C328.459 125.604 327.187 125.505 326.035 124.987C324.298 124.203 322.687 123.199 320.954 122.406C319.869 121.916 318.688 121.47 317.5 121.338C316.684 121.247 315.439 121.489 314.994 121.999C313.262 123.989 310.605 124.405 308.319 124.826C306.068 125.241 303.477 125.58 301.112 124.219C299.293 123.177 297.096 124 295.105 124.321C291.782 124.862 289.02 124.49 287.447 121.392C286.884 120.257 285.864 119.75 284.419 120.52C282.576 121.495 281.136 120.983 279.349 119.979C275.748 117.96 271.662 117.5 267.54 118.919C263.056 120.475 258.887 120.105 254.929 117.559C254.182 117.846 253.443 118.142 252.606 118.471C249.067 116.258 245.079 117.351 241.255 117.64C238.623 117.843 235.95 118.409 233.447 119.223C229.639 120.458 225.498 121.095 222.521 124.023C221.919 124.613 220.495 124.587 219.429 124.756C218.245 124.939 217.054 125.028 215.866 125.131C215.271 125.182 214.67 125.218 214.077 125.183C213.863 125.168 213.65 125.109 213.436 125.05C213.142 124.967 212.851 124.884 212.576 124.927C209.501 125.391 206.461 124.917 203.407 124.774C199.39 124.592 195.442 125.332 191.456 125.521C188.446 125.669 186.482 127.652 184.312 129.127C181.565 130.997 178.596 131.396 175.914 129.929C172.973 128.305 171.053 129.91 168.962 130.996C167.566 131.717 166.49 132.943 165.133 134.058C163.847 133.08 162.83 133.078 161.563 134.383C160.957 135.013 159.282 134.847 158.083 134.943C157.822 134.96 157.535 134.887 157.257 134.814C156.9 134.721 156.556 134.628 156.295 134.736C153.569 135.858 150.696 136.115 147.805 136.612C143.976 137.278 140.814 136.532 137.244 135.03C134.735 135.926 131.898 136.937 129.04 137.962C126.167 136.547 123.39 135.052 120.494 133.778C117.294 132.374 114.081 131.16 110.285 131.277C106.643 131.388 102.971 131.457 99.3221 131.043C95.883 130.655 92.4113 130.438 88.9493 130.144L88.3451 130.081C84.7364 131.01 82.062 129.206 79.194 127.786C76.235 126.326 72.794 125.933 69.6198 126.303C66.6487 126.655 64.1235 126.191 62.1406 124.69C61.0186 123.841 59.8575 123.207 58.6465 122.714L55.241 122.883L65.2855 361.262C69.0789 360.57 72.7523 359.279 76.7089 359.462C77.6258 359.495 78.5512 359.326 79.4673 359.205C84.152 358.578 88.8582 358.03 93.5198 357.27C96.079 356.853 98.5615 356.32 101.042 355.272C104.736 353.702 108.836 352.912 112.758 351.778C113.509 351.565 114.316 351.431 114.982 351.069C117.614 349.606 120.212 348.198 123.553 348.568C124.622 348.684 125.797 348.349 126.882 348.052C128.635 347.58 128.823 346.352 128.467 345.298C130.247 344.016 131.772 342.781 133.44 341.746C135.743 340.314 138.099 338.79 141.099 340.388C142.493 341.135 143.942 340.723 145.265 340.187C146.606 339.649 147.86 339.591 149.109 340.229C151.985 341.704 154.94 340.987 157.682 340.063C159.615 339.414 161.284 339.154 163.339 339.482C165.491 339.828 167.779 339.416 170.008 339.485C173.344 339.603 176.674 340.189 179.978 339.185C182.142 340.104 183.892 339.249 185.681 338.196C186.348 337.809 187.224 337.59 188.018 337.518C190.559 337.303 192.709 336.261 194.99 335.324C196.862 334.553 199.137 334.475 201.255 334.302C203.384 334.121 205.635 334.57 207.233 332.721C207.434 332.494 208.017 332.382 208.377 332.439C211.074 332.861 213.798 333.216 216.436 333.842C218.139 334.253 219.409 333.654 220.86 333.129C222.234 332.626 223.658 332.306 223.291 330.373C224.543 330.509 225.536 330.674 226.529 330.712C228.976 330.796 231.446 330.829 233.895 330.872C234.614 330.886 235.415 330.695 236.049 330.897C238.465 331.667 240.322 330.621 242.435 329.747C247.195 327.773 252.22 326.768 257.454 328.055C260.26 328.743 263.169 327.158 263.724 324.554C263.755 324.38 263.894 324.231 264.06 323.944C267.045 322.848 270.246 322.689 273.526 322.811C274.918 322.861 276.348 322.548 277.745 322.319C279.439 322.032 281.098 321.435 282.801 321.364C286.904 321.2 291.014 321.342 295.124 321.226C298.645 321.125 302.01 321.465 305.163 322.981C307.821 324.256 310.364 322.823 312.957 322.507C313.611 322.424 314.26 322.214 314.909 322.218C318.083 322.246 321.255 322.353 324.431 322.365C325.562 322.374 326.707 322.113 327.827 322.15C329.955 322.215 332.11 322.112 333.474 324.165C334.128 325.153 335.42 325.372 336.771 324.731C338.369 323.974 340.116 324.093 341.529 324.91C343.627 326.132 345.965 326.358 348.296 326.586C348.886 326.642 349.477 326.7 350.062 326.775C353.22 327.17 356.393 327.462 359.564 327.677C360.39 327.737 361.283 327.413 362.111 327.155C363.063 326.855 364.011 326.493 364.913 326.061C367.869 324.634 370.625 325.768 373.446 326.421C374.718 326.708 376.059 326.776 377.364 326.976C378.852 327.205 380.327 327.564 381.829 327.693C384.38 327.911 386.947 328.019 389.504 328.134C390.423 328.174 391.358 328.112 392.274 328.108C394.319 328.091 396.284 328.202 398.292 327.322C399.679 326.71 401.471 326.878 403.075 326.61C404.48 326.377 405.992 326.242 407.267 325.69C412.126 323.579 417.301 323.111 422.572 322.709C426.752 322.389 430.871 321.512 435.11 321.599C437.398 321.649 438.831 320.177 439.861 319.005C441.73 318.83 443.226 318.669 444.736 318.561C445.318 318.521 445.926 318.646 446.508 318.608C448.024 318.508 449.703 318.692 450.997 318.152C453.233 317.211 455.395 317.196 457.604 317.659C458.974 317.935 459.876 317.82 460.851 316.796C462.183 315.387 463.681 314.102 466.127 314.513C466.815 314.623 467.684 314.152 468.412 313.828C470.114 313.076 471.853 312.787 473.766 312.676C476.083 312.541 478.373 311.842 480.666 311.379C483.297 310.854 485.778 310.052 488.116 308.757C489.668 307.892 491.499 307.659 493.441 307.616C495.421 307.577 497.39 306.766 499.374 306.313C500.653 306.02 501.927 305.751 503.209 305.517C504.116 305.353 505.034 305.189 505.949 305.15C507.365 305.094 508.89 304.874 510.186 305.241C511.755 305.686 512.83 305.305 514.219 304.715C516.523 303.738 518.994 302.93 521.49 302.516C522.755 302.317 524.21 303.162 525.583 303.52C526.244 303.694 527.049 304.138 527.574 303.948C530.871 302.76 534.41 302.889 537.808 302.285C539.479 301.981 541.28 302.293 543.012 302.288C544.344 302.285 545.81 302.528 546.987 302.121C550.053 301.039 552.895 301.798 555.759 302.465C557.345 302.83 558.679 302.87 560.182 302.066C561.183 301.521 562.502 301.375 563.704 301.239C565.325 301.058 566.987 301.049 568.627 300.992C569.029 300.971 569.515 300.91 569.836 301.068C571.993 302.135 574.266 301.98 576.544 301.825C577.926 301.732 579.31 301.639 580.669 301.82C584.16 302.274 587.144 300.269 590.391 299.449C591.459 299.185 592.496 298.78 593.555 298.452C594.526 298.156 595.5 297.862 596.465 297.565L588.639 109.559Z" fill="white"/>
<path opacity="0.4" d="M283.69 256.239C283.727 255.865 283.76 255.529 283.791 255.216C284.001 255.171 284.211 255.126 284.423 255.083L284.82 254.654C285.272 254.051 285.892 253.676 286.648 253.501C287.124 253.374 287.215 253.007 287.271 252.61C287.483 252.093 287.284 251.531 287.283 250.99C287.883 251.072 288.434 251.331 288.84 251.97C288.872 252.014 288.902 252.053 288.934 252.09C288.964 252.391 288.971 252.688 288.85 252.979C288.794 253.363 288.707 253.718 288.236 253.869C287.483 254.078 286.87 254.472 286.422 255.075L286.03 255.507C285.227 255.713 284.424 255.924 283.69 256.239ZM291.553 252.844C291.368 252.823 291.19 252.79 291.026 252.731C291.102 252.738 291.176 252.75 291.251 252.762C292.12 252.485 292.975 252.196 293.831 251.902C294.401 251.856 294.975 251.878 295.554 251.928C295.49 251.935 295.424 251.942 295.36 251.95C294.512 252.276 293.661 252.6 292.801 252.909C292.793 252.908 292.784 252.907 292.775 252.906C292.56 252.885 292.334 252.877 292.115 252.876L291.553 252.844ZM301.036 251.982C301.243 251.919 301.447 251.844 301.652 251.753C302.297 251.202 303.112 251.003 303.968 250.892C303.666 251.026 303.38 251.199 303.123 251.425C302.44 251.749 301.741 251.911 301.036 251.982ZM320.629 248.405L320.408 248.358C320.509 248.314 320.619 248.277 320.735 248.248C320.698 248.301 320.664 248.352 320.629 248.405ZM368.353 248.907C367.84 248.857 367.334 248.735 366.838 248.474C367.119 248.323 367.407 248.202 367.711 248.232C367.855 248.246 368 248.292 368.151 248.381C367.678 246.938 369.565 247.608 369.615 246.589C369.522 246.25 369.57 245.992 369.693 245.774C369.712 245.895 369.707 246.024 369.692 246.156C369.953 246.186 370.116 246.297 369.907 246.681C369.402 247.249 368.466 247.571 368.74 248.577C368.735 248.725 368.69 248.838 368.618 248.929C368.53 248.922 368.44 248.916 368.353 248.907ZM512.929 259.977C512.806 259.965 512.679 259.948 512.552 259.929C512.048 259.233 511.518 258.598 510.946 258.065C510.555 258.364 510.157 258.664 509.734 258.898L509.666 258.926C509.15 259.205 508.574 259.382 507.882 259.314C507.659 259.292 507.424 259.245 507.171 259.168C505.883 258.768 504.616 258.543 503.362 258.42C501.376 258.226 499.421 258.292 497.446 258.355C496.837 257.156 494.339 258.241 494.242 256.436C493.755 255.982 493.215 255.744 492.653 255.598C492.342 255.638 492.028 255.655 491.71 255.623C491.544 255.607 491.378 255.577 491.208 255.534L491.162 255.633L491.044 255.389C490.612 255.367 490.177 255.354 489.751 255.312C489.384 255.276 489.021 255.22 488.671 255.116L488.672 255.114L488.566 254.647C487.008 254.275 485.456 253.918 483.894 253.55C483.321 252.404 482.4 251.469 481.238 250.679C480.821 250.485 480.388 250.336 479.943 250.216C479.618 250.326 479.391 250.566 479.099 250.723C477.776 251.446 476.422 252.205 474.71 252.424C474.147 250.876 472.309 250.509 470.916 249.749L470.916 249.744L470.781 249.582C470.49 249.777 470.175 249.927 469.837 250.05C469.727 250.062 469.634 250.064 469.554 250.057C468.839 249.987 469.211 249.146 468.858 248.806C468.559 248.463 468.352 248.314 468.199 248.287C468.298 248.01 468.399 247.739 468.641 247.763C468.798 247.778 469.011 247.912 469.317 248.245C469.669 248.555 469.319 249.387 469.979 249.452C470.069 249.46 470.18 249.455 470.314 249.432C470.674 249.282 471.015 249.121 471.325 248.894C471.356 248.946 471.386 249.004 471.412 249.063L471.412 249.067C472.828 249.746 474.701 249.999 475.276 251.511C477.019 251.189 478.391 250.365 479.742 249.538C480.042 249.364 480.262 249.103 480.593 248.97C481.057 249.063 481.511 249.182 481.946 249.356C483.125 250.066 484.045 250.942 484.627 252.041C486.22 252.304 487.801 252.553 489.388 252.81L489.496 253.271C489.68 253.311 489.87 253.339 490.06 253.357C490.566 253.407 491.087 253.392 491.609 253.378C491.718 253.375 491.826 253.372 491.935 253.369C491.971 253.445 492.006 253.523 492.036 253.607L492.085 253.503C492.178 253.521 492.269 253.535 492.363 253.544C492.782 253.585 493.194 253.542 493.602 253.459C494.159 253.564 494.692 253.774 495.179 254.179C495.224 254.993 495.776 255.173 496.423 255.237C496.571 255.251 496.724 255.259 496.875 255.267C497.028 255.275 497.181 255.283 497.328 255.298C497.808 255.345 498.238 255.457 498.446 255.844C501.044 255.569 503.608 255.281 506.251 255.54C506.952 255.608 507.658 255.716 508.373 255.872C508.526 255.905 508.673 255.928 508.816 255.942C509.651 256.024 510.323 255.786 510.917 255.422L510.988 255.39C511.421 255.121 511.83 254.781 512.233 254.452C512.817 254.929 513.351 255.524 513.867 256.169C514.386 256.206 514.872 256.175 515.342 256.112L515.677 255.876C515.724 255.673 515.792 255.577 515.882 255.586C515.936 255.591 515.997 255.634 516.064 255.713C515.956 256.814 515.845 257.952 515.729 259.134L515.714 259.149C515.69 259.397 515.678 259.52 515.654 259.769L515.532 259.303C515.295 259.51 515.029 259.633 514.767 259.748C514.669 259.598 514.586 259.52 514.514 259.513C514.432 259.505 514.366 259.596 514.322 259.788L513.994 259.998C513.649 260.014 513.297 260.013 512.929 259.977ZM464.879 251.951C463.26 251.464 461.778 250.524 460.094 250.359C459.891 250.339 459.684 250.33 459.473 250.335C459.207 250.302 458.941 250.273 458.668 250.247C458.7 250.241 458.73 250.235 458.76 250.231C459.104 250.249 459.442 250.261 459.776 250.287C460.095 250.264 460.404 250.27 460.709 250.299C462.225 250.448 463.592 251.171 465.059 251.561C465.019 251.655 464.991 251.756 464.973 251.867L464.971 251.887L464.879 251.951ZM453.678 250.598C453.666 250.576 453.654 250.557 453.643 250.54C453.659 250.555 453.678 250.573 453.694 250.59C453.689 250.592 453.683 250.594 453.678 250.598ZM456.81 250.452C456.649 250.174 456.482 249.983 456.313 249.865C456.549 249.927 456.778 250.1 456.995 250.425C456.933 250.434 456.872 250.442 456.81 250.452ZM465.611 250.957C465.953 250.512 466.57 250.287 467.066 249.972C467.018 250.075 466.96 250.16 466.885 250.207L466.789 250.168L466.709 250.366C466.365 250.581 465.949 250.735 465.611 250.957Z" fill="#928E8B"/>
<path d="M532.906 93.2754C532.207 93.718 531.335 93.6914 530.593 93.9986C530.006 94.2464 529.575 94.1614 529.082 93.8667C528.81 93.709 528.495 93.624 528.218 93.4748C527.395 93.0416 526.559 93.1227 525.955 93.726C525.117 94.5574 524.155 94.8431 523.014 94.8152C522.748 94.8095 522.455 94.8193 522.215 94.9157C521.104 95.3632 519.945 95.1504 518.806 95.2335C518.565 95.2528 518.268 95.1469 518.062 95.0092C516.314 93.8277 514.347 93.2148 512.261 93.0855C511.369 93.0299 510.854 92.8122 510.477 92.0292C510.06 91.1384 509.415 90.6549 508.267 90.624C507.291 90.6009 506.277 90.6532 505.265 90.1179C504.502 89.7132 503.386 89.5181 502.389 90.0762C502.133 90.2185 501.747 90.1695 501.38 90.1224C501.28 90.1103 501.182 90.0961 501.088 90.0869C500.687 90.0478 500.275 89.8154 499.897 89.8688C499.272 89.9546 498.671 89.8347 498.072 89.7129C497.629 89.6243 497.187 89.536 496.738 89.5305L496.183 89.1981C495.53 88.1282 494.46 87.6731 493.353 87.2462C492.348 86.863 491.339 86.1154 490.363 86.1467C488.934 86.1946 487.674 85.8091 486.338 85.5564C484.973 85.3008 483.756 84.8223 482.633 84.1472C481.251 83.3158 479.899 82.6252 478.206 82.7625C477.843 82.7904 477.44 82.5453 477.072 82.3782C475.873 81.8314 474.646 81.7295 473.424 82.2272C472.888 82.4437 472.416 82.4383 471.856 82.3135C471.356 82.2035 470.74 82.141 470.295 82.3258C468.864 82.9229 467.434 83.3325 465.865 82.9349L465.597 82.9471C464.466 83.0987 463.767 82.5714 463.133 81.6797C462.583 80.9002 461.874 80.1277 461.057 79.6477C460.129 79.1048 459.13 78.7087 458.495 77.5886C458.116 78.2049 457.824 78.6759 457.48 79.2346C455.984 79.3189 454.548 79.4159 453.11 79.4674C452.586 79.4863 452.04 79.4735 451.547 79.3394C450.456 79.0429 449.408 78.7392 448.243 78.7202C447.832 78.714 447.422 78.6558 447.011 78.5998C446.313 78.5021 445.615 78.4067 444.902 78.5518L444.639 78.4921C444.218 78.2385 443.763 78.2527 443.322 78.2707C443.077 78.2784 442.834 78.2885 442.607 78.2527C441.775 78.1193 441.113 78.3711 440.445 78.5613C439.396 78.8589 438.39 79.2104 437.245 78.9695C437.113 79.2777 437.01 79.5412 436.853 79.8989C435.71 79.7057 434.588 79.5689 433.493 79.308C432.7 79.1174 431.99 78.9282 431.461 79.7649L431.021 80.0339C428.846 80.7482 426.582 81.0558 424.324 81.4024C424.108 81.4356 423.875 81.3924 423.652 81.3842C422.841 81.3568 422.03 81.3635 421.226 81.2916C420.239 81.2087 419.093 81.325 418.33 80.8683C417.382 80.2986 416.52 80.1916 415.513 80.2762C415.164 80.3077 414.797 80.2651 414.44 80.2144C413.331 80.0471 412.237 79.8316 411.123 79.6932C410.786 79.649 410.413 79.7799 410.068 79.8637C409.501 79.9981 408.953 80.2136 408.378 80.2953C407.69 80.393 407.114 80.5763 406.559 81.0466C405.898 81.6082 405.064 81.859 404.175 81.408C402.734 80.6748 401.21 80.4692 399.6 80.6758C399.044 80.7525 398.443 80.7254 397.876 80.6451C396.81 80.4934 395.754 80.1346 394.687 80.1253C394.057 80.1202 393.63 79.9563 393.101 79.7034C392.192 79.2686 391.293 78.681 390.165 79.0207C389.671 79.1691 389.332 78.8714 389.026 78.4887C388.613 77.9758 388.189 77.5885 387.395 77.4814C385.373 77.2114 383.392 76.5248 381.321 77.1768C381.183 77.2176 381.026 77.2023 380.87 77.187C380.747 77.1727 380.623 77.1607 380.507 77.1741C379.292 77.3221 378.277 76.6509 377.164 76.3974C376.468 76.2366 375.779 76.1376 375.236 75.5396C375.006 75.2865 374.377 75.216 373.981 75.2925C372.916 75.4981 372.022 75.3225 371.245 74.557L370.874 74.5072C369.856 75.4838 369.857 75.4838 368.518 75.5044L367.981 75.5174C367.122 75.8245 366.45 75.4333 365.685 75.0962C364.428 74.5392 363.108 74.0959 361.77 73.7684C361.37 73.6705 360.957 73.6459 360.541 73.621C359.81 73.579 359.075 73.5365 358.425 73.0886L358.02 73.0241C357.059 72.7877 356.104 72.5292 355.136 72.3193C354.669 72.2171 354.118 72.0276 353.706 72.1682C352.024 72.7452 350.5 72.3543 349.043 71.5336C348.491 71.2195 347.963 71.2086 347.369 71.2184C345.907 71.2382 344.409 71.6185 343 70.8884C342.645 70.7067 342.291 70.5138 341.917 70.3755C341.608 70.2593 341.27 70.1562 340.94 70.1511C340.313 70.1373 339.682 70.1592 339.069 70.2372C337.86 70.3903 336.653 70.5548 335.458 70.7748C334.576 70.9395 333.721 71.3533 332.843 71.3918C330.981 71.4675 329.249 72.1006 327.437 72.3598C327.13 72.4043 326.791 72.5 326.516 72.4211C325.767 72.1987 324.981 72.1626 324.198 72.1267C323.032 72.0715 321.866 72.0162 320.812 71.3592L320.284 71.2986C319.566 71.2238 318.846 71.1105 318.127 71.0944C317.597 71.0832 317.025 71.1042 316.537 71.2803C315.799 71.5517 315.162 71.4714 314.444 71.1864C313.245 70.7097 312.055 70.166 310.653 70.5331C310.124 70.6735 309.457 70.5834 308.913 70.4105C306.696 69.7076 304.464 70.2059 302.245 70.2331C301.734 70.2396 301.325 70.2855 300.858 69.9957C300.672 69.8804 300.47 69.7566 300.259 69.6433L282.064 255.705C282.804 255.42 283.612 255.248 284.422 255.083L284.819 254.654C285.271 254.052 285.891 253.676 286.648 253.501C287.124 253.374 287.214 253.007 287.271 252.61C287.603 251.797 286.923 250.869 287.589 250.093C290.018 248.122 289.935 245.505 289.63 242.819C289.482 242.479 289.387 242.137 289.434 241.769C289.721 241.189 290.165 241.18 290.693 241.471L291.19 241.547C292.208 241.075 293.203 240.541 294.405 240.638L294.433 240.652L294.416 240.626L294.546 240.474L295.022 240.319C295.868 239.183 296.966 238.913 298.298 239.516C300.039 239.464 301.493 240.271 302.992 240.963C304.391 240.505 305.598 239.074 307.311 240.216C307.832 240.159 308.332 240.033 308.644 240.665L308.975 241.116L309.453 241.285C309.879 241.234 310.259 241.235 310.555 241.553C310.866 241.43 311.188 241.258 311.505 241.02C312.717 240.143 313.358 241.495 314.236 241.924L314.756 241.923L315.25 241.91C315.68 241.005 316.719 241.358 317.386 240.939L317.379 240.9C317.718 240.901 318.062 240.894 318.384 240.883C319.626 240.575 319.765 238.305 321.684 239.203C322.172 237.014 324.275 237.914 325.592 237.342C325.999 236.884 326.414 236.425 326.819 235.963C327.516 236.027 328.245 235.671 328.914 236.134C330.58 236.783 331.405 235.071 332.79 234.917L333.318 235.023L333.279 235.492C333.523 235.721 333.603 236.021 333.57 236.352L333.557 236.414C333.813 236.274 334.084 236.178 334.371 236.116L334.4 236.101L334.409 236.102L334.49 236.076L335.014 236.179L335.008 236.257C335.793 236.488 336.598 236.433 337.402 236.376L337.562 236.2L338.096 235.75C338.742 236.019 339.377 236.291 340.014 236.55C340.105 236.806 340.254 236.895 340.427 236.93L340.75 236.708C341.018 236.411 341.082 235.782 341.776 236.108C341.943 236.592 341.524 237.577 342.754 237.182C343.25 236.801 343.715 236.41 344.427 236.65L344.474 236.864C345.752 235.023 346.896 236.62 348.092 237.103L348.166 237.458C348.621 237.713 349.071 238.035 349.534 238.225L349.661 238.814C350.02 238.781 350.362 238.702 350.624 238.354C350.672 238.929 350.562 239.458 350.363 239.961C350.967 239.941 351.596 240.018 352.02 239.458C352.059 239.917 351.806 240.283 351.683 240.705C353.255 240.653 354.8 240.806 356.336 241.237C356.561 241.657 356.902 241.758 357.328 241.522C357.942 241.181 357.55 240.702 357.481 240.277C357.681 239.759 358.125 239.558 358.652 239.442C358.987 239.482 359.294 239.516 359.631 239.561C359.724 239.879 359.81 240.207 359.921 240.527C360.245 240.568 360.545 240.597 360.871 240.636C360.958 240.92 361.037 241.199 361.127 241.484C361.408 241.136 361.517 240.507 362.098 240.686C362.257 240.726 362.159 241.594 362.178 242.084L362.47 242.339C362.666 241.996 362.815 241.59 363.295 241.741C363.421 241.774 363.392 242.3 363.387 242.765C363.996 242.807 364.576 242.558 364.705 242.306C365.856 239.964 366.544 241.672 367.344 242.318C367.786 242.603 368.195 243.285 368.644 243.521C369.396 243.923 368.764 244.856 369.405 245.309C369.707 245.527 369.73 245.829 369.691 246.156C369.952 246.186 370.116 246.297 369.906 246.681C369.401 247.249 368.465 247.571 368.74 248.577C368.69 249.621 366.782 248.921 367.259 250.403C366.777 250.11 366.35 250.265 365.93 250.488C367.025 251.079 368.166 251.001 369.306 250.924C369.922 250.885 370.539 250.844 371.148 250.908L371.357 250.899L371.566 250.928L371.688 250.491C372.578 249.526 373.417 249.64 374.234 250.606L374.299 250.915L374.676 251.149L374.749 251.118L375.302 250.801C375.935 250.458 376.22 249.828 376.645 249.32C377.116 248.76 377.95 248.6 378.08 249.255C378.157 249.602 378.251 249.681 378.343 249.803L378.69 249.939C379.048 249.738 379.429 249.018 379.709 249.435C380.071 249.705 380.156 250.041 380.17 250.379L380.608 250.345C381.193 250.789 381.146 251.366 380.992 251.961L381.073 252.457L381.091 252.615C381.892 252.836 382.666 253.477 383.561 252.954C383.583 253.3 383.612 253.635 383.632 253.98C383.878 253.989 384.127 253.956 384.393 253.808L384.434 254.355C385.557 254.243 386.449 253.476 387.493 253.157C387.712 253.021 387.912 252.873 388.124 252.735C388.368 253.132 388.582 253.436 388.778 253.652L388.873 253.586L389.137 253.956C390.1 254.606 390.26 252.555 390.874 252.005C391.187 252.207 391.36 252.563 391.576 252.878L391.577 252.867L391.973 253.281C392.155 253.408 392.38 253.484 392.7 253.447C393.244 252.576 394.404 252.816 395.11 252.245C397.21 251.3 400.439 252.366 401.274 249.142C401.789 249.726 402.582 249.476 403.205 249.756C403.556 250.15 403.946 250.023 404.338 249.894C404.679 249.783 405.022 249.674 405.345 249.907L405.57 250.223C406.15 249.748 406.927 249.824 407.599 249.605L407.617 249.638C408.621 249.239 409.645 249.373 410.674 249.51C411.574 249.63 412.473 249.749 413.365 249.509C413.995 249.563 414.608 249.723 415.218 249.882C416.153 250.125 417.086 250.368 418.075 250.243C418.624 249.946 419.153 249.546 419.856 249.809C420.348 250.072 420.837 250.343 421.318 250.601C422.456 250.364 423.8 250.699 424.612 249.562C425.689 249.502 426.773 249.882 427.847 249.512C428.2 249.485 428.574 249.662 428.946 249.839C429.693 250.192 430.443 250.546 431.054 249.272C431.533 248.812 432.188 248.702 432.673 249.061C433.391 249.602 434.191 249.628 434.984 249.654C435.41 249.666 435.836 249.68 436.246 249.772L436.369 250.081C437.318 250.092 438.216 250.361 439.114 250.629C440.278 250.978 441.438 251.329 442.7 251.116L442.682 251.114C443.078 250.533 443.021 249.449 444.058 249.569C444.78 249.655 445.092 250.276 445.206 250.94C446.123 249.678 447.386 249.851 448.646 250.024C449.028 250.077 449.412 250.128 449.783 250.14C450.459 250.149 451.113 250.166 451.786 250.173L451.976 250.309C452.675 250.212 453.397 250.062 453.888 250.84C454.235 250.693 454.582 250.546 454.937 250.402C455.687 249.79 456.426 249.469 457.069 250.54C457.634 250.433 458.207 250.328 458.759 250.231C459.103 250.249 459.441 250.261 459.775 250.287C461.754 250.139 463.428 251.171 465.275 251.616L465.367 251.549L465.37 251.526C465.509 250.627 466.456 250.38 467.133 249.928L467.214 249.724L467.312 249.761C467.55 249.598 467.609 249.066 467.823 248.843L467.838 248.799L467.863 248.817L467.996 248.733C468.317 248.321 468.243 247.087 469.317 248.245C469.718 248.599 469.206 249.627 470.313 249.432C470.692 249.275 471.048 249.104 471.368 248.859C471.608 248.673 471.892 248.515 472.19 248.431C472.723 248.368 473.209 248.21 473.63 247.898C474.17 247.515 474.757 247.242 475.442 247.201C476.268 247.718 476.394 249.48 478.041 248.526C479.896 248.947 481.926 248.859 483.405 250.285C483.975 249.749 484.482 250.022 484.984 250.297C485.292 250.463 485.596 250.628 485.915 250.612C486.479 251.244 487.024 252.398 487.669 250.68L488.058 251.211C489.496 251.86 491.365 251.841 492.036 253.607L492.084 253.503C492.963 253.671 493.798 253.431 494.633 253.192C495.57 252.924 496.51 252.656 497.513 252.963L497.714 252.962L497.93 252.999C498.548 252.3 499.123 251.712 499.86 252.943C500.239 253.593 500.762 254.139 501.229 254.732L501.377 254.692L501.518 254.758C502.452 254.474 503.382 254.192 504.306 253.919C505.158 253.118 506.052 252.669 507.11 253.659L507.305 253.633L507.484 253.693C510.423 252.586 512.242 254.141 513.866 256.169C514.385 256.206 514.872 256.175 515.341 256.112L515.676 255.876C515.759 255.516 515.915 255.495 516.129 255.798C516.472 255.624 516.838 255.488 517.113 255.108L532.906 93.2754Z" fill="#EAE3DE"/>
<path fill-rule="evenodd" clip-rule="evenodd" d="M532.663 96.2311C532.213 96.022 531.776 95.794 531.415 95.4421C530.698 94.7548 529.891 94.7505 529.091 94.7469C528.745 94.7447 528.399 94.7448 528.064 94.6871C527.564 94.5998 527.037 94.6229 526.559 95.4217C526.229 95.966 525.189 95.7851 524.615 96.2263C523.771 96.8741 523.12 96.4644 522.47 96.0527C522.021 95.7692 521.572 95.4856 521.057 95.5483C520.681 95.5975 520.119 94.896 519.897 94.3723C519.315 93.0132 518.291 92.5943 517.232 92.1426C516.692 91.9134 516.144 91.688 515.642 91.3653C514.864 90.8642 514.159 90.2097 513.371 89.737C512.552 89.2364 511.496 89.3955 510.791 88.4878C510.672 88.3268 510.278 88.4421 510.025 88.51C509.135 88.7554 508.262 89.1357 507.366 89.2832C506.393 89.4458 505.598 89.8835 505.03 90.877C504.581 91.6583 504.018 91.7027 503.339 91.5504C501.186 91.0686 499.107 90.1644 496.885 90.0353C496.627 90.0191 496.37 89.969 496.113 89.9168C495.88 89.8714 495.647 89.826 495.414 89.8055C494.932 89.7788 494.434 89.7458 493.966 89.8561C493.164 90.0354 492.373 90.4487 491.576 90.529C490.001 90.6847 488.42 90.668 486.843 90.7263C486.113 90.7498 485.443 90.8516 484.847 91.5778C483.697 92.9824 482.06 92.9851 481.036 91.5488C480.609 90.9508 480.224 90.9064 479.76 91.3064C478.312 92.5439 476.627 92.5984 475.076 92.4988C472.609 92.3457 470.372 93.7479 467.988 93.9421L467.648 94.2299C465.579 95.2507 463.53 96.6215 461.28 95.2621L460.877 95.2408C460.151 95.2037 459.43 95.1061 458.712 95.1421C458.134 95.1601 457.545 95.288 456.979 95.452C455.789 95.8104 454.636 96.2922 453.379 95.9748C452.807 95.8307 452.133 96.0248 451.533 96.2126C449.948 96.6997 448.41 97.0601 447.009 95.7273C446.341 95.0989 445.51 95.1578 444.69 95.1296C444.119 95.1145 443.525 94.9976 443.033 94.7099C442.757 94.5472 442.664 93.9459 442.37 93.2795C442.214 93.3276 441.776 93.3865 441.388 93.5882C440.379 94.1293 439.417 94.6931 438.254 94.4279C437.52 94.2589 436.684 94.2292 435.962 94.4887C433.454 95.4054 431.164 94.7023 428.881 93.6877C428.512 93.525 428.066 93.2101 427.75 93.342C426.484 93.8964 425.517 93.3113 424.645 92.4098C423.058 90.7896 421.133 89.9368 419.294 88.9069C418.863 88.668 418.229 88.7303 417.737 88.9083C416.067 89.516 414.36 89.5705 412.67 89.9049C412.144 90.0095 411.615 90.1544 411.116 90.3951C410.109 90.8708 409.192 91.6697 408.031 91.633C406.728 91.6005 405.42 91.7439 404.112 91.7878C403.803 91.7983 403.467 91.7881 403.184 91.6631C401.931 91.1066 400.645 90.6213 399.459 89.8971C397.78 88.8693 396.162 88.0759 394.152 88.1257C392.633 88.1626 391.061 87.3849 389.645 86.6337C388.325 85.9349 386.905 85.1698 386.344 83.139C385.24 82.8683 384.13 82.4297 382.983 82.3491C381.598 82.2498 380.14 81.9853 378.815 82.7736C377.061 83.8116 375.071 84.2772 373.594 86.0498C373.443 86.225 373.183 86.2696 372.965 86.35C371.801 86.7697 370.684 87.3886 369.457 87.524C368.296 87.6546 367.144 88.0823 365.986 88.1793C363.998 88.3466 362.003 88.4251 360.017 88.4321C358.485 88.4315 356.947 88.3851 355.532 87.5345C354.409 86.8754 353.222 86.3704 352.052 85.8491C351.639 85.6595 351.13 85.4515 350.739 85.5851C349.307 86.0848 347.788 86.3591 346.63 87.7515C346.016 88.4805 345.35 88.5894 344.672 87.9421L344.204 87.6657C343.549 88.0923 342.887 88.3893 342.286 88.2966C340.507 88.0164 338.727 87.6931 337.116 86.6493C336.816 86.4527 336.367 86.4902 335.99 86.528C335.41 86.5865 334.8 86.9157 334.264 86.8022C333.167 86.5729 332.117 86.1243 331.046 85.7641C330.193 85.4749 329.633 85.6304 329.181 86.5923C328.597 87.8487 327.833 87.2518 326.956 86.6438C326.425 86.2776 325.853 85.9051 325.251 85.9367C324.174 85.9852 323.246 85.8334 322.299 85.6774C321.593 85.561 320.874 85.4454 320.073 85.41C319.133 85.361 317.977 85.829 317.048 85.6636C316.759 85.6127 316.484 85.6718 316.221 85.7319C315.754 85.8399 315.329 85.9521 314.94 85.4483C314.709 85.1477 314.106 85.0933 313.617 85.0523C313.431 85.0363 313.259 85.0195 313.132 84.9936C311.496 84.6618 310.234 84.2105 308.704 83.464C307.392 82.818 307.059 80.3324 305.653 80.7262C303.733 81.2574 301.094 80.3641 299.291 79.9435L282.519 250.893C283.164 251.028 283.812 251.132 284.467 251.156C285.752 251.198 287.787 250.316 288.839 251.97C289.135 252.392 289.545 252.545 289.994 252.623L290.56 252.688C290.786 252.703 291.026 252.726 291.251 252.762C292.119 252.485 292.975 252.196 293.831 251.902C294.801 251.825 295.792 251.942 296.782 252.059C298.431 252.255 300.08 252.45 301.652 251.753C303.049 250.556 305.246 251.024 306.938 250.432C307.734 250.503 308.525 250.569 309.297 250.631C310.32 250.408 311.329 250.222 312.361 250.721C312.61 250.878 316.323 249.937 318.159 249.361C318.423 249.387 318.638 249.361 318.865 249.265L319.304 249.378C319.745 248.7 320.306 248.165 321.404 248.178L321.752 248.27C321.983 248.126 322.284 248.053 322.543 247.952C323.631 248.031 324.694 248.101 325.783 248.181C329.179 247.315 332.791 246.745 334.79 244.063C335.158 243.577 336.026 243.743 336.684 243.857C337.64 243.057 338.963 243.094 340.24 243.009C340.524 242.835 340.834 242.662 341.132 242.486C342.541 242.689 343.81 242.422 344.927 241.781C345.379 241.798 345.861 241.824 346.315 241.848C346.89 241.681 347.465 241.511 348.046 241.349C349.377 240.563 350.896 240.178 352.605 240.085C355.24 239.497 357.826 239.151 359.738 241.472C360.713 239.843 363.323 240.342 364.709 239.259C365.697 238.492 367.254 238.106 367.422 236.78C368.532 236.531 369.485 235.501 370.846 236.52C371.068 236.417 371.324 236.388 371.58 236.413C372.178 236.119 372.798 235.84 373.412 235.545C377.718 233.59 382.551 234.757 387.19 234.711C391.212 233.321 395.097 234.071 398.906 235.694C399.426 236 399.99 236.098 400.572 235.886C403.653 235.378 406.691 235.085 409.002 237.529L408.876 237.591C409.491 237.636 409.991 237.933 410.491 238.229C411.169 238.627 411.844 239.028 412.804 238.81C413.851 239.586 414.395 240.738 415.847 241.171C416.264 241.183 416.636 241.418 417.011 241.654C417.656 242.061 418.306 242.468 419.199 241.73C420.442 242.007 421.502 242.495 422.28 243.327C423.13 243.627 423.489 244.161 423.643 244.814L423.624 245.124C423.895 245.241 424.139 245.362 424.403 245.474C425.918 246.266 427.562 245.313 428.724 245.193C433.288 244.735 432.63 245.849 431.709 247.059C432.342 247.29 432.284 247.725 431.966 248.248C433.102 248.122 434.233 247.997 435.342 247.869C435.772 247.746 436.215 247.701 436.594 247.507C437.818 246.637 439.312 246.898 440.778 247.075C441.177 246.974 441.619 246.936 442.011 246.764C442.518 246.667 443.039 246.659 443.562 246.647C443.727 246.181 444.186 245.862 444.795 245.621C446.637 244.264 450.224 245.078 451.234 242.681C452.357 241.972 454.31 242.344 454.617 242.72C456.136 244.646 458.35 244.862 460.556 245.076C461.537 245.171 462.516 245.267 463.432 245.513C463.702 245.738 463.981 245.96 464.237 246.188C464.734 246.956 466.058 246.425 466.589 247.146C467.635 247.622 469.094 247.242 469.916 248.215C470.652 248.235 471.157 248.495 471.412 249.063L471.411 249.067C472.828 249.746 474.7 249.999 475.276 251.511C477.019 251.189 478.39 250.364 479.742 249.538C480.168 249.288 480.436 248.862 481.091 248.89C482.683 249.674 483.909 250.689 484.626 252.041C486.219 252.303 487.8 252.553 489.387 252.81L489.496 253.27C490.173 253.418 490.89 253.398 491.608 253.377C492.869 253.34 494.132 253.305 495.179 254.179C495.235 255.177 496.053 255.223 496.874 255.267C497.524 255.303 498.172 255.337 498.446 255.843C501.731 255.496 504.97 255.127 508.372 255.871C509.419 256.1 510.222 255.849 510.917 255.422L510.988 255.39C511.681 254.961 512.303 254.354 512.946 253.888C514.703 252.658 516.106 252.613 516.764 254.761C516.863 255.09 516.954 255.413 517.035 255.742L532.663 96.2311Z" fill="#EAE3DE"/>
<path d="M31.5895 193.668C31.4283 193.652 31.2795 193.624 31.1456 193.584C29.6891 193.15 27.8769 189.787 27.4556 187.646C27.056 185.606 26.813 183.744 25.7269 183.638C25.6732 183.633 25.6168 183.632 25.5597 183.638C25.5212 183.638 25.4804 183.639 25.4401 183.635C24.2241 183.516 22.6902 180.499 22.6664 179.125C22.6417 177.689 24.315 173.593 23.3785 172.303C22.4356 171.011 24.3683 167.754 25.2315 165.863C25.5345 165.191 25.1253 164.821 24.4486 164.597C24.3348 164.559 24.2117 164.524 24.0835 164.493C22.8486 164.199 21.0961 164.226 20.7832 163.888C20.2437 163.302 20.2599 159.668 20.9972 159.342C21.7321 159.016 23.9813 153.286 22.9234 151.019C21.8671 148.759 29.1692 136.392 29.1692 136.392C29.1692 136.392 85.7789 82.0004 89.306 81.8592C91.6096 81.768 92.0561 81.1786 92.5801 81.2299C92.8555 81.2568 93.1542 81.4624 93.7621 82.0192C94.5503 82.7451 94.7701 83.7116 95.1163 84.5639C95.2547 84.9052 95.4152 85.2284 95.6386 85.5102C96.0412 86.0176 96.6557 86.392 97.7418 86.4982C97.8873 86.5124 98.0423 86.523 98.2071 86.5256C100.25 86.5806 101.104 86.3567 101.668 86.4119C102.138 86.4578 102.406 86.6988 102.999 87.4621C103.53 88.1517 103.621 88.8885 103.66 89.5095C103.694 90.0374 103.691 90.4824 103.897 90.7354C103.994 90.8579 104.142 90.9357 104.366 90.9576C104.453 90.9662 104.555 90.9671 104.669 90.9556C105.214 90.9095 106.009 90.8945 106.934 90.9849C108.876 91.1748 111.389 91.8275 113.393 93.6196C114.633 94.7243 114.5 95.6653 114.025 96.4757C113.466 97.4316 112.432 98.2055 112.617 98.8543C112.653 98.9732 112.727 99.0867 112.852 99.1984C113.065 99.3842 113.282 99.4733 113.51 99.4956C114.003 99.5438 114.538 99.275 115.134 99.01C115.727 98.747 116.383 98.4901 117.122 98.5624C117.532 98.6025 117.965 98.7421 118.427 99.0381C120.522 100.367 122.45 101.107 124.202 101.278C124.56 101.313 124.911 101.325 125.256 101.311C125.299 101.309 125.34 101.31 125.383 101.314C126.61 101.434 127.482 104.007 127.952 105.861C128.221 106.918 128.36 107.744 128.36 107.744C128.36 107.744 118.701 116.909 105.676 129.237C104.948 129.925 104.211 130.622 103.464 131.329C102.303 131.294 101.141 131.226 99.9806 131.112C99.7611 131.091 99.5419 131.067 99.3226 131.044C98.7457 130.978 98.1707 130.917 97.5929 130.861C94.722 130.58 91.8312 130.388 88.9498 130.144L88.3456 130.081C87.3762 130.33 86.4758 130.382 85.6226 130.298C83.2869 130.07 81.2926 128.826 79.1945 127.787C77.4691 126.935 75.5792 126.447 73.6757 126.261C72.3119 126.128 70.942 126.15 69.6203 126.303C68.5613 126.428 67.5577 126.45 66.6172 126.358C64.9175 126.191 63.4167 125.656 62.1411 124.69C61.0191 123.841 59.858 123.208 58.647 122.714L55.2415 122.883L57.4167 174.737C47.0286 184.466 39.2525 191.669 37.6665 192.929C37.4998 193.062 37.4005 193.129 37.3737 193.126C37.3737 193.126 37.3736 193.126 37.3716 193.124C36.9488 192.985 37.1015 192.349 37.1415 191.987C37.1557 191.841 37.1519 191.741 37.0869 191.735C37.0242 191.729 36.9087 191.801 36.7067 191.994C36.0071 192.651 34.1915 193.416 32.6832 193.628C32.289 193.682 31.9165 193.7 31.5895 193.668Z" fill="url(#paint1_linear_1_149251)"/>
<path d="M57.4166 174.736L55.2414 122.882L58.6469 122.713C59.8579 123.207 61.019 123.841 62.141 124.69C63.4166 125.655 64.9174 126.191 66.6171 126.357C67.5576 126.449 68.5612 126.428 69.6202 126.303C70.9419 126.15 72.3118 126.127 73.6756 126.261C75.5791 126.447 77.469 126.935 79.1944 127.786C81.2925 128.826 83.2868 130.07 85.6225 130.298C86.4757 130.381 87.3761 130.329 88.3455 130.08L88.9497 130.144C91.831 130.387 94.7219 130.58 97.5928 130.86C98.1705 130.917 98.7456 130.978 99.3225 131.043C99.5418 131.067 99.761 131.091 99.9804 131.112C101.14 131.225 102.303 131.294 103.464 131.328C91.4179 142.727 76.9285 156.412 64.5902 168.007C62.1008 170.345 59.6938 172.603 57.4166 174.736Z" fill="#F0F0E5"/>
<path d="M608.614 162.495C608.614 162.495 601.293 157.464 590.311 149.915L588.639 109.559C588.456 109.561 588.273 109.557 588.094 109.539C587.572 109.488 587.064 109.326 586.585 108.876C586.414 108.708 586.093 108.616 585.726 108.58C585.255 108.534 584.708 108.582 584.311 108.688C581.102 109.552 577.91 109.988 574.589 109.663C574.296 109.635 573.999 109.599 573.702 109.559C573.608 109.545 573.517 109.534 573.423 109.525C572.079 109.393 570.744 109.633 569.402 110.594C568.362 111.34 566.893 112.029 565.287 111.871C564.974 111.841 564.657 111.778 564.336 111.679C563.784 111.505 563.22 111.437 562.647 111.38C562.558 111.372 562.468 111.363 562.376 111.354C562.289 111.348 562.204 111.339 562.116 111.331C561.402 111.261 560.676 111.17 559.951 110.886C559.648 110.771 559.332 110.699 559.014 110.668C557 110.471 554.81 111.882 554.175 113.701C553.813 114.744 553.184 115.146 552.021 115.365C548.746 115.976 545.498 116.796 542.155 116.812C541.624 116.446 541.096 116.083 540.565 115.719C537.457 113.581 534.375 111.464 531.373 109.401L532.663 96.2309C532.65 96.2251 532.635 96.2169 532.62 96.2109L532.907 93.2751C532.208 93.7177 531.335 93.6911 530.593 93.9984C530.306 94.1194 530.058 94.1607 529.82 94.1375C529.572 94.1132 529.334 94.0176 529.082 93.8664C528.811 93.7087 528.496 93.6237 528.219 93.4745C527.935 93.3247 527.65 93.2357 527.374 93.2088C526.848 93.1573 526.352 93.3282 525.956 93.7258C525.117 94.5571 524.156 94.8428 523.014 94.8149C522.748 94.8092 522.455 94.819 522.215 94.9154C521.639 95.1484 521.048 95.2014 520.455 95.2112C520.225 94.974 520.015 94.6482 519.897 94.3722C519.316 93.0131 518.292 92.5942 517.233 92.1424C516.692 91.9132 516.144 91.6878 515.642 91.3652C514.864 90.864 514.159 90.2096 513.371 89.7369C512.552 89.2363 511.497 89.3953 510.792 88.4877C510.756 88.4389 510.695 88.4171 510.621 88.4099C510.448 88.393 510.202 88.4616 510.025 88.5099C509.136 88.7552 508.262 89.1355 507.366 89.283C506.637 89.404 506.009 89.6816 505.498 90.2308C505.42 90.1961 505.343 90.1591 505.265 90.1176C504.915 89.9319 504.488 89.7906 504.033 89.7462C503.675 89.7111 503.299 89.7354 502.929 89.8484C496.07 85.1331 491.708 82.136 491.365 81.899C489.643 80.7269 488.85 81.2145 487.826 78.528C487.758 78.3495 487.688 78.1596 487.62 77.954C486.488 74.6194 489.048 74.4514 491.455 70.9859C492.181 69.9424 492.835 69.6604 493.469 69.7224C493.986 69.7729 494.49 70.0528 495.007 70.334C495.525 70.6152 496.055 70.8977 496.626 70.9536C497.108 71.0007 497.621 70.8858 498.179 70.4724C500.866 68.4721 502.732 68.4691 504.647 66.5878C504.92 66.3183 505.118 66.0347 505.253 65.7404C505.872 64.3971 505.204 62.8147 504.745 61.2167C504.6 60.7142 504.476 60.2091 504.418 59.7106C504.14 57.278 505.008 54.9958 506.732 54.2624C508.462 53.5249 511.795 51.6465 512.103 48.6585C512.203 47.6984 512.831 47.4297 513.637 47.5086C515.337 47.6748 517.828 49.3834 517.828 49.3834C517.828 49.3834 621.987 120.739 623.428 121.724C624.68 122.583 623.452 124.041 622.736 125.515C622.628 125.738 622.532 125.961 622.456 126.182C622.306 126.635 622.345 127.13 622.466 127.625C622.799 128.969 623.729 130.317 623.031 130.891C622.621 131.228 621.857 131.296 621.173 131.299C620.266 131.303 619.504 131.197 619.896 131.464C620.144 131.633 620.016 132.341 619.694 133.25C619.503 133.795 619.239 134.409 618.944 135.022C618.371 136.216 617.676 137.405 617.14 138.051C616.035 139.383 614.91 139.976 614.603 140.735C614.558 140.849 614.531 140.963 614.524 141.087C614.474 142.016 614.88 144.106 614.499 144.069C614.492 144.068 614.483 144.067 614.477 144.064C614.42 144.048 614.331 144.032 614.221 144.021C613.878 143.988 613.316 144.001 612.767 144.164C612.17 144.343 611.589 144.7 611.324 145.37C611.318 145.386 611.312 145.401 611.306 145.416C610.751 146.951 611.104 150.232 610.344 151.467C609.578 152.705 610.859 154.221 611.88 156.681C612.495 158.157 611.198 159.956 610.06 161.158C609.302 161.959 608.614 162.495 608.614 162.495Z" fill="url(#paint2_linear_1_149251)"/>
<path d="M590.311 149.915C579.092 142.203 564.052 131.863 549.087 121.578C546.77 119.984 544.456 118.394 542.156 116.813C545.499 116.796 548.746 115.977 552.021 115.365C553.184 115.147 553.813 114.745 554.175 113.702C554.81 111.883 557.001 110.472 559.014 110.668C559.332 110.699 559.648 110.771 559.951 110.887C560.676 111.17 561.402 111.261 562.117 111.331C562.204 111.34 562.289 111.348 562.376 111.354C562.468 111.363 562.558 111.372 562.647 111.381C563.221 111.437 563.784 111.506 564.336 111.679C564.657 111.779 564.974 111.841 565.288 111.872C566.893 112.029 568.362 111.341 569.403 110.595C570.745 109.634 572.079 109.394 573.423 109.525C573.517 109.534 573.609 109.545 573.702 109.559C573.999 109.599 574.296 109.635 574.589 109.664C577.91 109.989 581.102 109.553 584.311 108.688C584.708 108.583 585.256 108.534 585.726 108.58C586.093 108.616 586.414 108.709 586.586 108.877C587.064 109.326 587.572 109.489 588.094 109.54C588.273 109.557 588.456 109.562 588.639 109.559L590.311 149.915Z" fill="#E1E1D4"/>
<path d="M531.373 109.4C521.234 102.431 511.924 96.0318 504.838 91.1609C504.904 91.0792 504.968 90.9837 505.03 90.8768C505.172 90.6284 505.329 90.4131 505.498 90.2308C506.009 89.6815 506.637 89.4039 507.366 89.283C508.262 89.1355 509.136 88.7552 510.025 88.5099C510.202 88.4616 510.448 88.393 510.621 88.4098C510.695 88.4171 510.756 88.4389 510.792 88.4876C511.496 89.3953 512.552 89.2362 513.371 89.7368C514.159 90.2095 514.864 90.864 515.642 91.3651C516.144 91.6878 516.692 91.9132 517.233 92.1424C518.292 92.5941 519.316 93.013 519.897 94.3721C520.015 94.6481 520.225 94.9739 520.455 95.2112C520.633 95.3982 520.824 95.5321 520.987 95.5481C521.012 95.5505 521.034 95.5504 521.057 95.5481C521.149 95.5367 521.237 95.5363 521.324 95.5448C521.729 95.5845 522.1 95.8174 522.47 96.0526C522.839 96.2853 523.209 96.5204 523.615 96.5601C523.921 96.5901 524.251 96.507 524.615 96.2261C525.189 95.7849 526.23 95.9658 526.559 95.4215C526.977 94.7231 527.433 94.6184 527.876 94.6618C527.939 94.6679 528.002 94.6763 528.064 94.6869C528.144 94.7015 528.224 94.7116 528.305 94.7195C528.565 94.7449 528.827 94.7457 529.091 94.7467C529.353 94.7475 529.618 94.7484 529.878 94.7738C530.413 94.8262 530.933 94.9811 531.415 95.4419C531.764 95.7813 532.185 96.0078 532.62 96.2108C532.635 96.2168 532.65 96.2251 532.663 96.2309L531.373 109.4Z" fill="#E1E1D4"/>
<path d="M281.159 108.965C281.159 108.965 280.994 108.456 280.752 107.557C280.917 107.252 281.059 106.94 281.179 106.615C281.296 106.292 281.392 105.96 281.466 105.619C284.7 103.668 284.452 102.106 283.138 100.567C283.057 100.469 282.971 100.372 282.882 100.273C282.765 100.146 282.644 100.017 282.517 99.8868C281.836 99.7027 281.33 99.4746 280.967 99.2107C278.068 97.1096 284.245 92.7579 282.564 90.3011C282.223 89.8021 281.559 89.3822 280.43 89.0728C280.143 88.8345 279.837 88.592 279.513 88.3433C279.307 88.1853 279.096 88.0268 278.879 87.8654C278.753 87.7716 278.627 87.6756 278.498 87.5816C278.42 87.1943 278.356 86.8082 278.306 86.4234C278.207 85.6541 278.169 84.8908 278.232 84.1238C278.276 83.6533 278.245 83.2116 278.143 82.7903C277.967 82.0314 277.569 81.3391 277 80.6551C276.813 80.4242 276.605 80.1936 276.396 79.9404C275.991 78.1011 275.757 77.0269 275.321 76.4191C274.997 75.9647 274.564 75.7686 273.87 75.7007C273.258 75.6409 272.443 75.681 271.32 75.7385C271.268 75.695 271.216 75.6537 271.163 75.6101C271.03 75.4976 270.894 75.3849 270.758 75.2699C270.497 74.9346 270.226 74.5893 269.942 74.2292C269.796 73.7786 269.716 73.5312 269.716 73.5312L341.239 50.4318C341.239 50.4318 341.38 50.8706 341.613 51.653C341.423 52.1386 341.217 52.5571 340.998 52.92C339.922 54.7003 338.535 55.148 337.151 55.5959C337.148 55.7877 337.151 55.9621 337.154 56.1206C337.162 56.5464 337.176 56.8666 337.162 57.1208C337.964 59.1141 338.865 59.7311 339.774 59.82C340.594 59.9002 341.422 59.5493 342.183 59.3887C342.453 59.3315 342.717 59.2985 342.963 59.3226C343.01 59.3272 343.057 59.334 343.103 59.3431C343.348 61.3293 343.381 63.0033 343.599 64.5212C343.652 64.8995 343.718 65.2677 343.802 65.6286C343.754 68.407 345.848 69.8438 347.334 71.219C346.385 71.2348 345.42 71.3981 344.475 71.3056C343.975 71.2568 343.483 71.1386 343.001 70.888C342.646 70.7063 342.291 70.5134 341.918 70.3752C341.654 70.277 341.372 70.1861 341.087 70.1583C341.038 70.1534 340.991 70.1511 340.941 70.1507C340.314 70.1369 339.683 70.1589 339.07 70.2368C337.861 70.3899 336.653 70.5544 335.459 70.7744C334.577 70.9391 333.722 71.3529 332.844 71.3914C330.982 71.4671 329.25 72.1002 327.438 72.3594C327.181 72.3976 326.901 72.4696 326.657 72.4457C326.607 72.4409 326.561 72.4318 326.517 72.4207C326.113 72.2998 325.698 72.2345 325.282 72.1937C324.921 72.1585 324.559 72.1412 324.199 72.1263C323.834 72.1087 323.472 72.0914 323.114 72.0563C322.319 71.9786 321.539 71.8119 320.813 71.3588L320.285 71.2982C319.842 71.2526 319.398 71.1911 318.957 71.1479C318.679 71.1208 318.403 71.1005 318.128 71.094C317.598 71.0828 317.026 71.1038 316.538 71.2799C316.137 71.4261 315.767 71.4713 315.395 71.4349C315.084 71.4045 314.773 71.3176 314.445 71.186C313.64 70.8654 312.838 70.5156 311.973 70.4311C311.552 70.3899 311.114 70.4126 310.654 70.5327C310.38 70.6054 310.07 70.6157 309.756 70.5851C309.467 70.5568 309.175 70.4943 308.914 70.4101C308.375 70.2397 307.833 70.1392 307.293 70.0865C305.611 69.922 303.924 70.2114 302.246 70.2328C301.997 70.2355 301.775 70.2477 301.555 70.2262C301.324 70.2037 301.1 70.1433 300.859 69.9953C300.673 69.88 300.471 69.7562 300.26 69.6429L296.913 103.876C293 105.14 289.556 106.252 286.897 107.111C286.449 107.255 286.024 107.392 285.625 107.523C285.223 107.653 284.845 107.774 284.493 107.887C284.138 108.001 283.811 108.107 283.51 108.204C282.529 108.522 281.827 108.747 281.458 108.867C281.262 108.932 281.159 108.965 281.159 108.965Z" fill="url(#paint3_linear_1_149251)"/>
<path d="M296.912 103.876L300.26 69.643C300.47 69.7562 300.673 69.8801 300.858 69.9954C301.099 70.1433 301.324 70.2037 301.555 70.2263C301.774 70.2477 301.997 70.2356 302.246 70.2328C303.923 70.2115 305.611 69.9221 307.293 70.0865C307.832 70.1393 308.374 70.2398 308.914 70.4101C309.174 70.4944 309.467 70.5569 309.756 70.5851C310.069 70.6158 310.38 70.6055 310.654 70.5328C311.113 70.4126 311.552 70.39 311.973 70.4311C312.837 70.5157 313.639 70.8654 314.445 71.1861C314.773 71.3177 315.083 71.4046 315.395 71.435C315.766 71.4713 316.137 71.4262 316.538 71.28C317.025 71.1038 317.597 71.0829 318.127 71.094C318.403 71.1006 318.679 71.1208 318.956 71.148C319.397 71.1911 319.841 71.2527 320.285 71.2983L320.812 71.3588C321.539 71.812 322.318 71.9787 323.113 72.0564C323.472 72.0914 323.834 72.1088 324.198 72.1264C324.559 72.1412 324.921 72.1585 325.281 72.1938C325.698 72.2345 326.112 72.2999 326.516 72.4208C326.56 72.4319 326.607 72.441 326.656 72.4458C326.9 72.4697 327.181 72.3976 327.438 72.3595C329.249 72.1003 330.982 71.4671 332.843 71.3914C333.722 71.353 334.576 70.9391 335.458 70.7744C336.653 70.5544 337.861 70.3899 339.069 70.2368C339.683 70.1589 340.313 70.1369 340.941 70.1508C340.99 70.1511 341.038 70.1535 341.087 70.1583C341.371 70.1861 341.654 70.2771 341.918 70.3752C342.291 70.5134 342.645 70.7063 343 70.888C343.482 71.1386 343.975 71.2569 344.474 71.3057C345.419 71.3981 346.385 71.2348 347.334 71.2191C348.314 72.1266 349.031 73.006 348.695 74.2256C348.559 74.7142 348.36 75.1514 348.109 75.5474C347.571 76.3946 346.789 77.0484 345.863 77.5864C345.592 77.7431 345.309 77.8916 345.02 78.0284C339.555 79.8859 337.149 81.4638 337.505 82.0955C337.588 82.2415 337.82 82.3389 338.197 82.3756C339.321 82.4856 341.742 82.069 345.358 80.9033C345.728 80.962 346.102 81.019 346.475 81.0872C347.594 81.2961 348.707 81.6106 349.735 82.3578C349.963 82.5021 350.187 82.6575 350.41 82.8285C351.079 83.3393 351.73 83.9885 352.345 84.8218C352.562 85.4919 352.682 85.8653 352.682 85.8653C352.682 85.8653 352.565 85.9036 352.338 85.9764C352.243 85.9331 352.148 85.8899 352.052 85.8489C351.767 85.7193 351.437 85.5785 351.13 85.5485C350.993 85.5351 350.861 85.5448 350.74 85.5849C349.307 86.0846 347.788 86.3589 346.63 87.7513C346.602 87.7848 346.574 87.8159 346.544 87.8469C346.11 87.9876 345.652 88.135 345.181 88.2878C345.011 88.2192 344.842 88.1032 344.672 87.9419L344.204 87.6655C343.578 88.0746 342.944 88.363 342.364 88.3063C342.34 88.3039 342.313 88.3013 342.286 88.2964C340.507 88.0162 338.728 87.693 337.116 86.6491C336.987 86.5641 336.828 86.5215 336.66 86.5051C336.441 86.4836 336.203 86.5056 335.991 86.5278C335.454 86.5816 334.891 86.8678 334.382 86.8203C334.342 86.8164 334.302 86.8102 334.264 86.802C333.167 86.5727 332.117 86.1241 331.047 85.764C330.856 85.7001 330.679 85.6579 330.514 85.6417C329.947 85.5863 329.533 85.8465 329.182 86.5922C328.91 87.1782 328.598 87.3603 328.253 87.3266C327.859 87.288 327.425 86.9675 326.957 86.6437C326.489 86.3198 325.987 85.9926 325.463 85.9414C325.394 85.9346 325.324 85.9345 325.251 85.9365C324.754 85.9602 324.288 85.9395 323.838 85.8955C323.314 85.8442 322.809 85.761 322.299 85.6772C321.79 85.5935 321.273 85.5091 320.725 85.4554C320.512 85.4346 320.296 85.4181 320.073 85.4098C319.189 85.3641 318.114 85.7744 317.218 85.6868C317.16 85.6811 317.104 85.6734 317.049 85.6634C317.015 85.6579 316.984 85.6526 316.953 85.6495C316.7 85.6248 316.455 85.6777 316.221 85.7317C315.99 85.786 315.767 85.8411 315.555 85.8202C315.34 85.7992 315.135 85.7001 314.94 85.4482C314.739 85.1867 314.258 85.1125 313.815 85.0691C313.748 85.0626 313.683 85.0562 313.618 85.0521C313.553 85.0458 313.49 85.0396 313.429 85.0337C313.318 85.0228 313.215 85.0104 313.133 84.9934C311.497 84.6616 310.234 84.2103 308.704 83.4638C307.52 82.8823 307.134 80.7963 306.034 80.6887C305.916 80.6771 305.79 80.6874 305.653 80.726C305.002 80.9066 304.268 80.923 303.511 80.849C302.038 80.7049 300.482 80.2204 299.291 79.9434L296.945 103.866C296.933 103.869 296.924 103.873 296.912 103.876Z" fill="#E1E1D4"/>
<path d="M296.944 103.866L299.291 79.9438C300.482 80.2208 302.038 80.7053 303.511 80.8494C304.268 80.9234 305.002 80.9069 305.653 80.7264C305.79 80.6878 305.915 80.6775 306.034 80.6891C307.133 80.7966 307.52 82.8827 308.704 83.4642C310.234 84.2107 311.496 84.662 313.132 84.9938C313.214 85.0108 313.317 85.0231 313.429 85.0341C313.49 85.04 313.552 85.0461 313.617 85.0525C313.682 85.0566 313.747 85.063 313.815 85.0695C314.258 85.1129 314.739 85.187 314.94 85.4486C315.134 85.7005 315.339 85.7996 315.554 85.8206C315.767 85.8414 315.989 85.7863 316.221 85.7321C316.455 85.6781 316.699 85.6252 316.952 85.6499C316.984 85.653 317.015 85.6583 317.048 85.6638C317.104 85.6738 317.159 85.6815 317.218 85.6872C318.113 85.7748 319.189 85.3644 320.073 85.4102C320.296 85.4184 320.511 85.435 320.724 85.4558C321.273 85.5095 321.789 85.5939 322.299 85.6776C322.808 85.7614 323.313 85.8446 323.837 85.8959C324.287 85.9399 324.753 85.9606 325.251 85.9369C325.323 85.9349 325.393 85.935 325.463 85.9418C325.987 85.993 326.488 86.3202 326.956 86.644C327.424 86.9679 327.859 87.2884 328.253 87.327C328.598 87.3607 328.909 87.1786 329.181 86.5925C329.532 85.8469 329.947 85.5867 330.513 85.6421C330.679 85.6583 330.856 85.7005 331.046 85.7643C332.117 86.1245 333.167 86.5731 334.264 86.8024C334.301 86.8106 334.341 86.8168 334.382 86.8207C334.89 86.8682 335.454 86.5819 335.99 86.5282C336.203 86.506 336.44 86.484 336.66 86.5055C336.828 86.5219 336.986 86.5645 337.116 86.6495C338.727 87.6934 340.507 88.0166 342.286 88.2968C342.312 88.3017 342.339 88.3043 342.364 88.3067C342.944 88.3634 343.578 88.075 344.204 87.6659L344.672 87.9423C344.841 88.1036 345.011 88.2196 345.18 88.2882C343.397 88.8644 341.357 89.5217 339.127 90.2442C328.997 93.5152 314.936 98.0567 303.199 101.846C301.021 102.549 298.922 103.228 296.944 103.866ZM346.544 87.8473C346.574 87.8163 346.602 87.7852 346.63 87.7517C347.788 86.3593 349.307 86.085 350.739 85.5853C350.861 85.5452 350.993 85.5355 351.13 85.5489C351.436 85.5789 351.766 85.7196 352.052 85.8493C352.147 85.8903 352.243 85.9335 352.338 85.9767C352.291 85.9925 352.238 86.0076 352.179 86.0268C351.304 86.3097 349.317 86.9519 346.544 87.8473Z" fill="#E1E1D4"/>
<defs>
<linearGradient id="paint0_linear_1_149251" x1="-1570.32" y1="-758.43" x2="840.561" y2="690.986" gradientUnits="userSpaceOnUse">
<stop stop-color="#777575"/>
<stop offset="1" stop-color="#686566"/>
</linearGradient>
<linearGradient id="paint1_linear_1_149251" x1="-1262.17" y1="34.6863" x2="821.055" y2="928.609" gradientUnits="userSpaceOnUse">
<stop stop-color="#50735F"/>
<stop offset="1" stop-color="#DBD9D3"/>
</linearGradient>
<linearGradient id="paint2_linear_1_149251" x1="-1280.61" y1="-51.234" x2="1219.04" y2="1491.22" gradientUnits="userSpaceOnUse">
<stop stop-color="#50735F"/>
<stop offset="1" stop-color="#DBD9D3"/>
</linearGradient>
<linearGradient id="paint3_linear_1_149251" x1="-698.377" y1="-4.48456" x2="731.292" y2="799.636" gradientUnits="userSpaceOnUse">
<stop stop-color="#50735F"/>
<stop offset="1" stop-color="#DBD9D3"/>
</linearGradient>
</defs>
</svg>
