<svg width="660" height="520" viewBox="0 0 660 520" fill="none" xmlns="http://www.w3.org/2000/svg">
<path opacity="0.5" d="M71.7575 520C71.5051 517.384 71.2525 514.77 71 512.154C71.1347 512.135 71.2766 512.128 71.4281 512.128C71.5748 512.128 71.7287 512.135 71.8922 512.15C73.4696 512.293 75.0542 512.536 76.6412 512.536C76.6725 512.536 76.7061 512.536 76.7398 512.533C77.5333 512.531 78.322 511.996 79.1324 511.785C79.5075 511.689 79.9307 511.584 80.3154 511.584C80.4765 511.584 80.6304 511.6 80.7699 511.646C82.4771 512.174 84.2084 512.317 85.9469 512.317C86.8173 512.317 87.6878 512.281 88.5582 512.241C89.4407 512.195 90.3136 511.689 91.1408 511.035C91.3885 511.102 91.6577 511.128 91.8741 511.238C92.2613 511.433 92.6244 511.526 92.961 511.526C93.6103 511.526 94.1634 511.178 94.6203 510.526C95.9235 508.644 98.0203 507.946 99.9391 507.016C100.172 506.903 100.459 506.865 100.759 506.865C101.129 506.865 101.526 506.925 101.88 506.985C103.678 507.292 105.498 507.575 107.263 508.056C108.16 508.301 109.05 508.395 109.935 508.395C111.262 508.395 112.58 508.184 113.89 507.953C116.723 507.45 119.548 506.865 122.34 506.174C123.97 505.769 125.509 504.992 127.13 504.553C128.847 504.09 130.285 503.103 131.841 502.328C132.127 502.182 132.49 502.067 132.658 501.827C134.325 499.424 137.044 498.391 139.288 496.758C140.98 495.523 143.128 495.463 145.126 495.233C145.612 495.175 146.105 495.156 146.598 495.156C147.776 495.156 148.964 495.274 150.123 495.298C150.438 495.823 150.803 496.25 151.207 496.605C151.065 496.605 150.923 496.602 150.779 496.602C150.491 496.597 150.2 496.595 149.911 496.595C149.057 496.595 148.201 496.621 147.357 496.756C145.381 497.065 143.258 497.221 141.584 498.487C139.365 500.161 136.676 501.295 135.027 503.671C134.861 503.908 134.5 504.04 134.216 504.191C132.692 505.014 131.254 506.028 129.559 506.555C127.955 507.057 126.433 507.881 124.822 508.351C122.064 509.155 119.265 509.862 116.466 510.49C114.958 510.828 113.438 511.14 111.907 511.14C111.245 511.14 110.582 511.083 109.916 510.943C108.175 510.579 106.371 510.409 104.594 510.219C104.316 510.188 104.013 510.159 103.714 510.159C103.334 510.159 102.964 510.207 102.676 510.361C100.781 511.358 98.7056 512.152 97.4168 514.025C96.9431 514.713 96.3563 515.082 95.6662 515.082C95.3656 515.082 95.0434 515.01 94.7043 514.866C94.4903 514.775 94.2258 514.766 93.9781 514.718C93.1606 515.391 92.2998 515.926 91.4269 516.022C90.0347 516.171 88.6352 516.31 87.2478 516.31C86.0647 516.31 84.8913 516.209 83.7323 515.933C83.6313 515.909 83.5231 515.9 83.4101 515.9C82.9965 515.9 82.5228 516.041 82.114 516.171C81.3133 516.42 80.5342 516.981 79.7479 517.036C79.2839 517.07 78.8197 517.082 78.3532 517.082C77.2207 517.082 76.0881 517.01 74.9604 516.986C74.9171 516.984 74.8738 516.984 74.8305 516.984C73.6331 516.984 72.9165 517.353 72.5342 518.497C72.3418 519.082 72.0749 519.573 71.7575 520ZM178.477 500.99C178.381 500.99 178.285 500.985 178.191 500.973C177.852 500.928 177.511 500.887 177.169 500.846C177.33 500.825 177.489 500.796 177.643 500.767C179.502 500.388 181.329 499.894 183.198 499.609C184.864 499.355 185.97 498.218 187.288 497.413C187.937 497.012 188.658 496.717 189.38 496.465C191.705 495.66 194.129 495.166 196.358 494.053C196.86 493.802 197.502 493.607 198.077 493.607C198.176 493.607 198.274 493.612 198.368 493.626C198.26 493.672 198.154 493.72 198.055 493.773C195.85 494.914 193.451 495.463 191.147 496.312C190.433 496.578 189.719 496.885 189.077 497.293C187.774 498.113 186.677 499.247 185.028 499.544C183.181 499.882 181.365 500.424 179.531 500.844C179.194 500.921 178.828 500.99 178.477 500.99ZM162.343 499.961C160.835 499.961 159.279 499.703 157.827 499.436C156.298 499.156 154.682 498.854 153.422 497.854C154.17 498.122 154.949 498.305 155.708 498.477C157.334 498.851 159.087 499.221 160.758 499.221C161.357 499.221 161.944 499.173 162.511 499.062C163.36 498.894 164.175 498.823 164.976 498.823C166.661 498.823 168.27 499.146 169.917 499.592C169.119 499.472 168.318 499.4 167.501 499.4C166.548 499.4 165.574 499.499 164.557 499.731C163.846 499.897 163.1 499.961 162.343 499.961ZM523.056 481.808C522.856 481.808 522.666 481.781 522.5 481.702C521.851 481.393 521.233 481.299 520.613 481.299C520.007 481.299 519.401 481.39 518.771 481.46C517.653 481.587 516.522 481.733 515.412 481.733C513.507 481.733 511.656 481.299 509.994 479.575C508.265 479.482 508.313 478.038 508.058 476.585C507.291 477.086 506.748 477.508 506.144 477.808C505.36 478.199 504.56 478.731 503.713 478.796C500.871 479.009 497.993 479.225 495.179 479.621C494.973 479.65 494.766 479.669 494.561 479.669C493.883 479.669 493.253 479.451 492.825 478.638C492.703 478.403 492.328 478.199 492.051 478.151C491.219 478.005 490.377 477.904 489.538 477.866C488.119 477.801 486.734 477.705 485.349 477.103C484.902 476.911 484.32 476.787 483.786 476.787C483.378 476.787 483 476.859 482.736 477.031C482.146 477.412 481.589 477.52 481.016 477.52C480.625 477.52 480.225 477.47 479.807 477.424C479.453 477.384 479.095 477.372 478.739 477.372C478.323 477.372 477.91 477.388 477.499 477.405C476.585 477.436 475.671 477.496 474.767 477.585C473.707 477.686 472.656 477.832 471.61 477.969C471.273 478.012 470.869 478.213 470.566 478.213C470.484 478.213 470.41 478.199 470.345 478.163C469.128 477.465 467.904 476.71 466.81 475.823C466.269 475.384 465.81 475.087 465.24 475.087C465.024 475.087 464.79 475.13 464.531 475.223C464.317 475.302 464.079 475.326 463.833 475.326C463.627 475.326 463.415 475.31 463.201 475.293C462.987 475.276 462.775 475.259 462.569 475.259C462.528 475.259 462.489 475.259 462.451 475.262C462.386 475.264 462.323 475.264 462.258 475.264C462.016 475.264 461.763 475.252 461.511 475.238C461.26 475.226 461.008 475.211 460.765 475.211C460.272 475.211 459.811 475.264 459.445 475.477C458.512 476.017 457.56 476.214 456.603 476.214C455.826 476.214 455.045 476.084 454.266 475.909C453.773 475.799 453.311 475.712 452.888 475.712C452.056 475.712 451.378 476.048 450.923 477.209C450.382 476.592 450.002 476.154 449.666 475.775C449.012 475.804 448.312 475.967 447.689 475.967C447.372 475.967 447.071 475.923 446.811 475.796C446.489 475.638 446.225 475.59 445.977 475.59C445.662 475.59 445.373 475.669 445.032 475.708C443.669 475.859 442.481 476.796 441.098 476.796C440.872 476.796 440.637 476.77 440.396 476.71C439.716 476.544 439.047 476.485 438.383 476.485C437.272 476.485 436.181 476.652 435.106 476.765C434.202 475.988 433.766 475.614 433.329 475.614C432.913 475.614 432.497 475.95 431.679 476.595C431.297 476.895 430.794 477.194 430.33 477.211C430.162 477.218 429.991 477.221 429.821 477.221C429.032 477.221 428.224 477.151 427.469 476.95C426.75 476.755 425.976 476.336 425.449 475.801C424.499 474.835 423.434 474.434 422.342 474.434C421.797 474.434 421.241 474.535 420.693 474.715C419.919 474.969 419.171 475.108 418.445 475.108C417.319 475.108 416.242 474.772 415.194 474.005C414.544 473.53 413.506 473.442 413.397 472.336L412.832 471.895C411.808 471.993 410.502 471.845 409.793 472.403C407.754 474.005 405.39 474.389 403.012 474.389C402.505 474.389 401.997 474.372 401.492 474.346C399.924 474.264 397.732 474.403 396.962 472.24C395.161 472.528 394.11 474.25 392.316 474.25C392.208 474.25 392.095 474.243 391.98 474.231L391.751 474.514C391.552 475.183 391.162 475.346 390.696 475.346C390.434 475.346 390.145 475.293 389.854 475.25C389.316 475.173 388.753 475.075 388.212 475.075C387.981 475.075 387.753 475.091 387.534 475.137C387.291 475.19 387.07 475.216 386.865 475.216C386.081 475.216 385.569 474.823 385.319 473.919C383.987 474 382.773 474 381.587 474.173C381.056 474.25 380.527 474.293 380.007 474.293C378.608 474.293 377.261 473.981 376.064 473.161C374.979 472.42 373.808 471.878 372.625 471.37C373.813 471.847 374.991 472.36 376.085 473.072C377.216 473.811 378.476 474.099 379.786 474.099C380.402 474.099 381.029 474.036 381.659 473.926C382.857 473.715 384.083 473.679 385.427 473.557C385.673 474.427 386.165 474.811 386.916 474.811C387.142 474.811 387.389 474.775 387.664 474.708C387.933 474.645 388.214 474.621 388.503 474.621C389 474.621 389.513 474.691 390.008 474.749C390.275 474.777 390.539 474.816 390.782 474.816C391.287 474.816 391.711 474.655 391.922 473.943L392.153 473.653C392.244 473.66 392.333 473.665 392.422 473.665C394.288 473.665 395.339 471.842 397.181 471.487C397.958 473.629 400.175 473.411 401.757 473.435C401.949 473.437 402.139 473.439 402.332 473.439C405.049 473.439 407.804 473.084 410.137 471.176C410.853 470.591 412.161 470.701 413.207 470.55L413.777 470.97C413.893 472.075 414.929 472.118 415.588 472.564C416.574 473.243 417.581 473.542 418.627 473.542C419.438 473.542 420.272 473.363 421.143 473.044C421.765 472.816 422.393 472.686 423.011 472.686C424.042 472.686 425.045 473.048 425.947 473.919C426.483 474.432 427.257 474.818 427.986 474.976C428.563 475.103 429.167 475.151 429.772 475.151C430.14 475.151 430.511 475.135 430.874 475.106C431.347 475.065 431.85 474.746 432.237 474.43C433.086 473.727 433.507 473.372 433.94 473.372C434.37 473.372 434.81 473.725 435.698 474.437C436.948 474.25 438.213 473.988 439.511 473.988C440.016 473.988 440.526 474.027 441.04 474.127C441.233 474.163 441.42 474.18 441.603 474.18C443.063 474.18 444.291 473.13 445.722 472.895C446.104 472.837 446.415 472.73 446.771 472.73C446.992 472.73 447.232 472.77 447.518 472.893C447.737 472.989 447.982 473.022 448.245 473.022C448.911 473.022 449.682 472.792 450.404 472.725C450.743 473.084 451.125 473.499 451.671 474.084C452.164 472.823 452.914 472.485 453.835 472.485C454.213 472.485 454.619 472.543 455.049 472.614C455.699 472.725 456.348 472.801 456.997 472.801C458.103 472.801 459.202 472.576 460.279 471.905C461.063 471.413 462.29 471.615 463.314 471.521C463.444 471.511 463.576 471.507 463.711 471.507C463.831 471.507 463.951 471.509 464.072 471.514C464.194 471.516 464.314 471.519 464.435 471.519C464.783 471.519 465.12 471.495 465.418 471.368C465.719 471.245 465.985 471.19 466.231 471.19C466.762 471.19 467.202 471.449 467.719 471.83C468.825 472.65 470.054 473.331 471.29 473.948C471.345 473.976 471.41 473.988 471.478 473.988C471.788 473.988 472.211 473.746 472.567 473.681C473.627 473.48 474.688 473.276 475.758 473.111C476.671 472.969 477.592 472.852 478.518 472.766C479.158 472.703 479.804 472.634 480.451 472.634C480.584 472.634 480.716 472.638 480.85 472.643C481.149 472.658 481.435 472.674 481.719 472.674C482.423 472.674 483.094 472.574 483.808 472.073C484.128 471.852 484.606 471.756 485.107 471.756C485.578 471.756 486.064 471.84 486.448 471.979C487.607 472.394 488.754 472.475 489.923 472.475C490.176 472.475 490.428 472.471 490.683 472.466C490.801 472.463 490.921 472.461 491.041 472.461C491.77 472.461 492.501 472.507 493.22 472.583C493.501 472.612 493.881 472.787 494.006 473.015C494.4 473.715 494.956 473.924 495.564 473.924C495.829 473.924 496.105 473.885 496.382 473.83C499.236 473.235 502.126 472.852 505.007 472.432C505.868 472.312 506.671 471.727 507.462 471.288C508.075 470.948 508.624 470.495 509.398 469.946C509.653 471.346 509.609 472.758 511.297 472.758C511.316 472.758 511.336 472.758 511.355 472.758C512.798 474.118 514.382 474.528 516.017 474.528C517.402 474.528 518.824 474.235 520.225 473.976C521.007 473.837 521.75 473.665 522.503 473.665C522.991 473.665 523.486 473.737 523.996 473.936C524.123 473.984 524.263 474.003 524.409 474.003C524.809 474.003 525.265 473.861 525.677 473.792C525.965 473.739 526.263 473.478 526.511 473.478C526.538 473.478 526.566 473.48 526.59 473.487C526.848 473.554 527.088 473.586 527.314 473.586C528.738 473.586 529.594 472.382 530.609 471.593C531.246 471.099 531.782 470.773 532.645 470.675C533.715 470.55 534.725 469.941 535.769 469.557C536.12 469.428 536.541 469.181 536.863 469.181C536.923 469.181 536.981 469.188 537.034 469.207C537.584 469.411 538.135 469.478 538.683 469.478C539.496 469.478 540.301 469.332 541.107 469.274C541.857 469.214 542.574 468.857 543.319 468.706C543.995 468.565 544.694 468.521 545.382 468.433C546.132 468.342 546.895 468.274 547.638 468.143C548.08 468.061 548.501 467.867 548.931 467.718C549.679 467.459 550.429 467.193 551.468 466.829C551.961 467.102 552.401 467.217 552.807 467.217C554.38 467.217 555.424 465.493 556.833 464.438C557.136 464.472 557.53 464.57 557.929 464.57C558.018 464.57 558.105 464.565 558.191 464.555C558.247 464.548 558.297 464.543 558.345 464.543C558.773 464.543 558.824 464.822 559.1 465.148C559.788 465.953 560.824 466.476 561.733 467.083C562.681 467.721 563.65 468.33 564.854 469.109L565.244 468.999C566.026 468.207 566.927 467.903 567.882 467.903C568.334 467.903 568.796 467.97 569.264 468.087C569.483 468.143 569.685 468.171 569.878 468.171C570.327 468.171 570.707 468.011 571.056 467.661C571.558 467.15 572.164 466.953 572.765 466.953C573.126 466.953 573.487 467.023 573.821 467.14C574.252 467.291 574.631 467.368 574.968 467.368C575.812 467.368 576.375 466.879 576.707 465.797C576.738 465.797 576.769 465.797 576.8 465.797C579.433 465.797 581.872 465.335 584.117 464.066C584.399 463.908 584.776 463.872 585.137 463.872C585.245 463.872 585.353 463.874 585.459 463.879C585.577 463.884 585.697 463.886 585.815 463.886C587.948 463.886 589.706 463.102 591.197 461.479C591.877 460.74 592.887 460.314 593.762 459.741C594.789 460.407 595.705 461.004 596.342 461.421C598.381 461.465 600.151 461.402 601.892 461.604C602.51 461.673 603.049 462.39 603.866 462.982C606.98 461.896 609.801 460.004 611.422 456.494C611.874 456.77 612.181 456.959 612.282 457.024C613.453 456.674 614.586 456.336 615.699 456C616.132 460.932 616.565 465.865 617 470.797L616.702 470.852C614.444 471.322 612.181 471.794 609.76 472.298C609.661 472.219 609.356 471.993 608.911 471.665C607.31 475.103 604.525 476.76 601.447 477.561C600.642 476.873 600.11 476.084 599.5 475.95C597.78 475.571 596.03 475.458 594.017 475.216C593.387 474.727 592.481 474.024 591.466 473.24C590.605 473.746 589.605 474.084 588.934 474.777C587.638 476.115 586.135 476.765 584.358 476.765C584.004 476.765 583.639 476.739 583.264 476.688C583.05 476.66 582.817 476.631 582.591 476.631C582.353 476.631 582.124 476.662 581.939 476.753C580.229 477.592 578.407 477.928 576.469 477.928C575.863 477.928 575.245 477.894 574.615 477.834C574.312 478.832 573.811 479.29 573.076 479.29C572.701 479.29 572.265 479.17 571.765 478.945C571.363 478.762 570.926 478.647 570.493 478.647C569.976 478.647 569.464 478.81 569.031 479.223C568.728 479.513 568.401 479.647 568.021 479.647C567.788 479.647 567.538 479.597 567.261 479.499C566.677 479.295 566.102 479.175 565.547 479.175C564.732 479.175 563.965 479.436 563.287 480.069L562.902 480.148C561.709 479.244 560.752 478.537 559.817 477.806C558.92 477.108 557.896 476.482 557.213 475.602C556.919 475.223 556.881 474.919 556.373 474.919C556.354 474.919 556.335 474.919 556.316 474.921C556.289 474.921 556.265 474.921 556.241 474.921C555.787 474.921 555.318 474.753 554.972 474.686C553.632 475.605 552.625 477.182 551.168 477.182C550.718 477.182 550.225 477.034 549.667 476.669C548.64 476.952 547.9 477.161 547.159 477.362C546.734 477.48 546.318 477.643 545.88 477.688C545.149 477.763 544.389 477.763 543.651 477.796C542.973 477.83 542.278 477.818 541.609 477.906C540.878 478.002 540.167 478.304 539.433 478.304C539.428 478.304 539.426 478.304 539.421 478.304C539.407 478.304 539.392 478.304 539.378 478.304C539.104 478.304 538.83 478.314 538.553 478.324C538.277 478.336 537.998 478.345 537.716 478.345C536.947 478.345 536.17 478.268 535.393 477.911C535.326 477.88 535.252 477.868 535.172 477.868C534.86 477.868 534.473 478.069 534.143 478.168C533.112 478.475 532.111 479.012 531.053 479.055C530.2 479.089 529.671 479.379 529.041 479.832C528.081 480.52 527.259 481.609 525.965 481.609C525.689 481.609 525.393 481.561 525.066 481.446C525.032 481.434 524.999 481.429 524.962 481.429C524.722 481.429 524.436 481.654 524.162 481.683C523.808 481.719 523.414 481.808 523.056 481.808ZM365.416 472.773C365.436 472.725 365.457 472.677 365.479 472.629C365.46 472.677 365.438 472.725 365.416 472.773Z" fill="url(#paint0_linear_1_73720)"/>
<path d="M595.735 58.9031C595.014 59.4878 593.568 59.9835 592.283 59.5143C589.438 61.6557 586.457 61.4825 583.204 60.4214C581.171 59.7524 579.033 60.4045 577.025 61.0566C575.629 61.509 574.255 61.6245 572.832 61.2419C568.972 62.007 565.534 60.2529 561.916 59.4878L561.892 59.4709C560.604 59.5768 559.405 59.4541 558.456 58.4411C558.194 58.2558 557.932 58.0754 557.671 57.8901C551.343 56.509 545.017 55.1447 538.704 53.754C538.072 53.6361 537.341 53.7131 536.921 53.0514C534.941 52.3007 533.125 52.8878 531.292 53.4725C529.843 53.9369 528.385 54.4012 526.824 54.2063C524.275 53.8887 521.774 53.6095 519.426 52.5484C517.769 52.1105 515.9 52.3729 514.501 51.076L514.518 51.1024C513.738 50.9123 512.945 51.0134 512.152 51.1121C511.126 51.2396 510.1 51.3694 509.101 50.8738L508.781 50.9557L508.488 50.8257C507.114 50.5659 505.733 50.2844 504.363 50.0173C502.624 51.2396 501.475 49.7357 500.171 49.062C497.588 48.3859 495.006 47.693 492.413 47L326.393 62.3198L316.978 63.1884L309.91 63.8405C305.348 66.4006 298.684 66.5859 293.867 65.3227L288.937 65.775C287.474 66.2851 286.016 66.3814 284.565 66.1793L244.872 69.8413C244.617 70.8134 244.257 71.5425 242.945 70.07L242.882 70.0266L239.497 70.337C237.105 71.7783 234.531 72.2041 231.733 71.285C231.372 71.2465 231.002 71.2802 230.63 71.3163C230.147 71.3596 229.662 71.4053 229.193 71.2898L227.339 71.4607C226.202 72.0478 225.071 72.6324 223.925 73.2244C222.856 74.9688 221.037 74.3071 219.747 74.1026C216.081 73.4962 212.857 74.5959 209.714 76.1695C206.522 77.7527 202.8 77.3797 199.567 78.9702C198.913 79.2902 197.227 78.5395 196.871 77.0958C195.687 76.309 194.5 75.5247 193.315 74.7403L192.765 74.6512L142.97 79.2445C142.295 79.3456 141.627 79.4611 141.01 79.7137C139.864 81.4871 139.177 84.7112 136.361 81.1213C136.113 80.7892 135.366 80.835 134.852 80.7171C132.452 82.4928 129.956 82.9524 126.828 82.6997C125.13 82.5698 122.823 83.9124 120.683 84.2926C119.532 85.3224 118.283 85.1058 117.033 84.8893C116.438 84.7858 115.844 84.6848 115.26 84.7161C114.614 85.0073 113.97 85.3008 113.31 85.5895C112.757 86.6049 111.693 86.3137 110.837 86.5543C110.403 87.755 109.367 88.0486 108.57 87.3532C107.08 86.09 106.011 87.2955 104.779 87.654C102.232 90.0914 100.231 93.3733 95.9544 93.0389C95.3922 92.9908 94.4337 93.3854 94.2511 93.8161C93.0427 96.8069 90.8132 96.6625 88.5861 96.5181C87.8774 96.4724 87.1711 96.4267 86.4984 96.4796C83.9062 96.6962 81.5974 98.2049 78.8682 97.9258C78.5487 97.8921 78.2196 97.9017 77.8857 97.9113C77.3475 97.9282 76.7998 97.9426 76.264 97.7766C75.6322 98.2097 75.0004 98.6573 74.3517 99.0928C74.4622 99.9782 74.1187 100.618 73.1842 100.601C71.7691 100.57 72.413 99.3767 72.204 98.6669C71.8556 98.638 71.5 98.6812 71.1444 98.7245C70.3853 98.8184 69.631 98.9123 68.9487 98.2963C68.1439 98.9652 67.1781 98.763 66.2412 98.7149C63.106 100.488 59.1467 98.6693 55.9227 101.46C54.7359 102.485 51.1515 101.521 48.9196 100.192C48.5761 100.101 48.2541 99.9734 48.3382 99.509C48.0716 99.2949 47.8073 99.071 47.543 98.8593L47 98.9844L68.5283 515C68.8478 514.572 69.1168 514.074 69.3138 513.472C69.715 512.252 70.4742 511.935 71.7668 512.05C73.3764 512.197 74.9907 512.447 76.61 512.435C77.4028 512.433 78.1908 511.896 79.0005 511.684C79.5314 511.547 80.156 511.393 80.6365 511.545C83.1951 512.339 85.8113 512.269 88.4179 512.141C89.2996 512.096 90.1717 511.588 90.9982 510.931C91.2456 510.999 91.5147 511.025 91.7309 511.136C92.8624 511.704 93.7803 511.417 94.4746 510.421C95.7767 508.532 97.8715 507.832 99.7887 506.899C100.312 506.646 101.088 506.759 101.727 506.867C103.525 507.175 105.343 507.459 107.106 507.943C109.343 508.559 111.544 508.224 113.728 507.839C116.558 507.334 119.381 506.747 122.17 506.054C123.799 505.647 125.336 504.868 126.955 504.427C128.671 503.963 130.107 502.972 131.662 502.195C131.948 502.048 132.31 501.932 132.479 501.692C134.144 499.281 136.861 498.244 139.102 496.605C140.793 495.366 142.939 495.306 144.935 495.075C146.588 494.88 148.287 495.106 149.927 495.14C151.237 497.334 153.452 497.856 155.508 498.33C157.716 498.84 160.155 499.341 162.305 498.917C165.159 498.352 167.667 498.86 170.314 499.62C172.191 500.154 174.144 500.392 176.071 500.715C176.503 500.787 176.986 500.715 177.423 500.628C179.28 500.248 181.106 499.752 182.973 499.466C184.638 499.211 185.743 498.07 187.059 497.262C187.708 496.86 188.429 496.564 189.15 496.312C191.473 495.503 193.894 495.007 196.121 493.891C196.777 493.561 197.666 493.33 198.339 493.501C201.219 494.223 204.182 494.721 206.848 496.186C208.319 497.004 209.844 497.433 211.509 496.478C211.927 496.242 212.641 496.494 213.21 496.593C216.718 497.187 220.158 497.418 223.502 495.734C224.468 495.253 225.667 495.08 226.757 495.089C228.475 495.104 229.71 494.209 231.012 493.333C231.512 493.003 232.122 492.825 232.333 492.729C232.917 493.424 233.203 494.093 233.635 494.211C234.409 494.42 235.288 494.403 236.103 494.281C237.28 494.105 238.447 493.824 239.56 494.387C241.893 495.561 243.992 494.764 246.13 493.807C246.938 493.441 247.848 493.046 248.703 493.068C250.575 493.116 252.093 492.274 253.7 491.569C254.464 491.232 255.274 490.939 256.096 490.77C257.112 490.549 258.159 490.479 259.204 490.342L259.784 490.263C263.334 491.263 265.91 489.173 268.6 487.474L269.014 487.06C272.36 486.239 275.2 484.062 278.755 483.622C280.99 483.342 283.38 482.856 285.134 481.071C285.691 480.496 286.253 480.448 287.008 481.03C288.834 482.423 291.164 482.01 292.454 480.106C293.117 479.12 294.049 478.836 295.085 478.622C297.319 478.162 299.573 477.78 301.78 477.207C302.9 476.916 303.921 476.242 305.021 475.835C305.66 475.59 306.371 475.501 307.068 475.414C307.782 475.337 308.512 475.393 309.226 475.304C312.423 474.899 315.611 475.417 318.802 475.429C319.811 475.431 320.599 475.241 321.043 474.228C321.605 472.941 322.629 472.241 323.974 471.81C325.211 471.413 326.362 470.758 327.566 470.253C327.917 470.106 328.447 469.88 328.654 470.034C329.891 470.9 331.354 470.448 332.644 470.819C333.887 471.17 335.059 471.743 336.294 472.125C336.805 472.284 337.348 472.356 337.884 472.445L338.377 477.818C338.881 477.633 339.398 477.479 339.948 477.414C340.2 477.38 340.551 477.318 340.673 477.144C341.93 475.349 343.537 476.511 345.036 476.536C346.201 476.56 347.266 477.794 348.549 476.764C348.758 476.596 349.469 477.048 350.033 477.248C351.225 475.85 352.515 475.948 353.995 476.872C355.427 477.77 355.785 477.597 356.628 476.182C356.928 475.679 357.248 475.193 357.574 474.678C359.266 475.263 360.856 475.559 362.557 474.837C363.713 474.344 364.532 473.771 365.027 472.541C365.841 470.525 368.715 469.69 370.005 470.234C371.912 471.04 373.911 471.675 375.689 472.837C377.349 473.927 379.285 474.038 381.258 473.694C382.454 473.482 383.679 473.446 385.022 473.323C385.342 474.462 386.077 474.767 387.257 474.478C387.992 474.303 388.821 474.43 389.599 474.519C390.413 474.611 391.199 474.774 391.511 473.711L391.742 473.42C393.777 473.607 394.839 471.62 396.765 471.247C397.541 473.396 399.756 473.177 401.337 473.201C404.237 473.249 407.216 472.984 409.71 470.934C410.426 470.347 411.733 470.458 412.778 470.306L413.347 470.727C413.462 471.836 414.498 471.88 415.156 472.327C416.902 473.535 418.712 473.545 420.706 472.808C422.368 472.197 424.067 472.289 425.506 473.687C426.041 474.202 426.815 474.589 427.543 474.748C428.473 474.955 429.47 474.95 430.428 474.878C430.902 474.837 431.404 474.517 431.79 474.199C433.487 472.789 433.472 472.775 435.248 474.206C436.982 473.944 438.748 473.542 440.586 473.896C442.299 474.228 443.656 472.924 445.263 472.659C445.883 472.563 446.315 472.339 447.058 472.657C447.836 472.996 448.939 472.582 449.941 472.488C450.28 472.849 450.662 473.266 451.207 473.853C451.901 472.067 453.105 472.128 454.582 472.378C456.339 472.674 458.102 472.734 459.808 471.666C460.591 471.172 461.816 471.374 462.84 471.281C463.087 471.259 463.342 471.266 463.596 471.273C464.07 471.283 464.54 471.295 464.942 471.127C465.898 470.734 466.486 471.033 467.241 471.591C468.346 472.414 469.574 473.097 470.808 473.716C471.116 473.872 471.652 473.528 472.084 473.448C473.143 473.246 474.203 473.042 475.272 472.876C476.185 472.734 477.105 472.616 478.03 472.529C478.801 472.455 479.584 472.368 480.36 472.407C481.396 472.452 482.314 472.539 483.315 471.834C483.933 471.403 485.16 471.451 485.953 471.74C487.361 472.245 488.75 472.255 490.184 472.229C491.03 472.212 491.88 472.257 492.719 472.347C493 472.375 493.379 472.551 493.504 472.78C494.071 473.79 494.965 473.778 495.878 473.598C498.729 473.001 501.617 472.616 504.495 472.195C505.355 472.075 506.158 471.487 506.948 471.047C507.561 470.705 508.109 470.251 508.882 469.7C509.142 471.119 509.091 472.553 510.838 472.522C513.495 475.039 516.64 474.308 519.7 473.744C520.986 473.511 522.17 473.198 523.467 473.704C523.941 473.886 524.587 473.655 525.147 473.559C525.466 473.499 525.8 473.184 526.06 473.254C527.938 473.744 528.899 472.269 530.074 471.353C530.711 470.857 531.246 470.53 532.109 470.431C533.178 470.306 534.187 469.695 535.23 469.31C535.645 469.156 536.157 468.836 536.493 468.959C537.863 469.466 539.218 469.125 540.563 469.026C541.312 468.966 542.028 468.607 542.773 468.456C543.448 468.314 544.147 468.271 544.835 468.181C545.584 468.09 546.346 468.023 547.088 467.89C547.53 467.809 547.95 467.614 548.38 467.464C549.128 467.205 549.877 466.938 550.915 466.572C553.308 467.9 554.504 465.506 556.275 464.173C556.642 464.214 557.147 464.351 557.632 464.291C558.204 464.221 558.233 464.522 558.54 464.885C559.227 465.694 560.263 466.218 561.171 466.827C562.118 467.467 563.086 468.078 564.289 468.86L564.679 468.749C565.829 467.582 567.237 467.469 568.696 467.835C569.433 468.02 569.988 467.907 570.485 467.407C571.29 466.586 572.357 466.572 573.248 466.885C574.75 467.409 575.667 467.058 576.131 465.537C578.798 465.547 581.265 465.09 583.535 463.8C583.903 463.593 584.429 463.595 584.876 463.612C587.168 463.704 589.037 462.922 590.608 461.204C591.288 460.463 592.297 460.034 593.172 459.459C594.197 460.128 595.113 460.727 595.749 461.146C597.786 461.189 599.555 461.127 601.294 461.329C601.911 461.399 602.45 462.118 603.266 462.712C606.378 461.622 609.196 459.724 610.815 456.201C611.267 456.478 611.574 456.668 611.675 456.733C614.125 455.997 616.413 455.306 618.697 454.613L619 454.531L599.163 56.8891C597.967 57.4016 596.809 58.0345 595.735 58.9031Z" fill="white"/>
<path fill-rule="evenodd" clip-rule="evenodd" d="M614.297 35.4905C611.343 36.3633 608.323 37.3875 605.282 37.5558C601.221 37.777 597.09 37.2625 593 37.0028C590.916 36.8658 589.143 37.1302 587.307 38.532C585.089 40.227 582.529 41.8668 579.577 39.3783C579.262 39.109 578.665 39.2292 578.045 39.3494C577.662 39.4216 577.272 39.4961 576.933 39.4793C576.019 39.4312 575.083 39.5226 574.15 39.6164C571.659 39.8592 569.191 40.1044 567.204 37.7049C564.651 38.7147 562.235 39.5995 559.875 40.6165C556.957 41.8884 554.397 41.7755 552.145 39.1523C550.396 37.0966 548.007 36.3705 545.48 36.7456C542.67 37.1303 539.747 37.4693 537.18 38.5753C534.054 39.8953 530.109 39.0442 527.746 42.2708L527.349 42.35C523.528 43.2661 519.763 43.2782 516.597 40.5252C515.028 39.1619 513.698 39.3278 512.127 40.0707C511.152 40.5107 510.173 40.9027 509.829 41.0301C507.134 40.3208 505.087 39.5347 502.975 39.2798C499.209 38.8254 495.42 38.6497 491.626 38.443C490.697 38.3997 489.544 38.3565 488.876 38.847C484.227 42.3381 477.871 42.879 474.045 47.8176C473.653 48.3201 472.919 48.861 472.33 48.8418C470.285 48.8225 468.841 49.9237 467.229 51.0105C464.903 52.607 462.42 54.0785 459.817 55.0955C456.564 56.353 453.099 57.0647 449.757 58.0817C448.203 58.5578 446.714 59.1925 445.217 59.7647C443.093 60.575 441.024 61.8228 438.82 62.0945C435.983 62.46 433.246 62.6644 430.705 64.2705C429.865 64.8163 428.477 64.999 427.539 64.6792C425.777 64.0757 424.052 64.3595 422.33 64.6456C420.867 64.8885 419.406 65.1313 417.927 64.8259C417.337 64.6985 416.469 64.9221 416.019 65.3332C413.488 67.6943 410.11 67.8433 407.115 68.8652C404.851 69.637 402.288 69.7861 399.87 69.6851C396.24 69.5336 392.645 68.9133 389.019 68.5286C388.632 68.4901 388.1 68.4396 387.862 68.6464C385.095 71.106 381.462 70.565 378.274 71.582C374.721 72.7313 371.175 73.2482 368.304 70.3654C366.052 71.4017 364.007 73.2411 362.164 73.0319C357.954 72.5511 355.163 74.7317 352.314 77.0375C350.402 78.5907 348.72 78.7133 346.826 77.1529C345.159 75.7728 343.203 75.8065 341.42 76.4845C337.022 78.1676 332.605 78.9057 327.906 78.0473C327.122 77.8983 326.193 78.5186 325.351 78.8456C323.284 79.6534 321.696 81.2163 319.17 81.4928C316.362 81.803 313.733 83.0652 310.92 81.5072C310.624 81.3461 310.109 81.4471 309.734 81.5938C306.873 82.7454 303.969 83.813 301.195 85.1739C299.121 86.1861 297.204 87.4315 294.552 86.4025C293.734 90.4129 290.891 91.3073 287.59 91.5934C286.654 91.6727 285.725 91.9781 284.784 92.0262C281.491 92.1897 278.43 92.9567 275.425 94.4907C272.995 95.7265 270.291 97.1691 267.416 95.0918C267.045 94.8177 266.362 94.9018 265.828 94.9307C262.197 95.1783 258.569 95.5246 254.931 95.7121C249.941 95.979 244.932 96.0823 239.933 96.3901C238.768 96.4598 237.512 96.8541 236.509 97.448C233.242 99.3402 230.049 101.377 226.868 103.413C224.186 105.123 220.587 104.654 218.255 102.072C216.655 103.228 215.039 104.659 212.844 103.098C212.44 102.817 211.54 103.163 210.92 103.375C204.775 105.341 198.004 105.524 193.116 110.174C190.957 109.366 189.184 108.775 187.457 108.053C185.816 107.354 184.259 106.669 182.383 107.27C181.531 107.534 180.499 107.325 179.57 107.157C176.401 106.596 173.721 107.445 171.323 109.626C170.117 110.696 168.743 111.862 167.268 112.23C165.089 112.771 163.373 113.61 161.708 115.219C159.788 117.094 156.779 118.104 154.608 116.615C151.317 114.387 148.752 114.55 145.73 116.707C144.325 117.707 142.547 118.234 140.866 118.755C137.389 119.844 133.867 121.523 130.33 121.568C126.353 121.619 122.925 123.114 119.412 124.288C116.621 125.211 114.1 125.918 111.253 124.942C110.515 124.684 109.516 124.345 108.946 124.663C104.769 126.889 100.256 125.685 96.233 124.985C92.9778 124.406 90.7836 124.843 88.4041 126.581C85.4544 128.731 82.2184 129.844 78.5397 129.878C75.9702 129.902 73.4223 130.383 70.8455 130.537C68.3891 130.686 67.0875 131.859 66.1828 134.307C65.3047 136.682 64.0607 139.856 62.1408 140.685C58.3707 142.308 56.215 147.088 51.3454 146.41C50.9436 146.352 50.4744 147.018 50.0052 147.268C48.949 147.817 47.8712 148.3 46.8005 148.819C45.8815 149.278 44.9455 149.649 44 149.968L58.2359 264.636C64.8403 267.488 71.5649 266.17 77.9864 264.463C83.4046 263.011 87.7088 264.475 92.5399 266.692C92.8503 265.105 93.8993 264.451 95.6701 264.68C96.9885 264.85 98.4922 264.92 99.6879 264.439C104.283 262.581 108.883 262.722 113.616 263.759C114.869 264.021 116.335 263.785 117.593 263.417C120.425 262.607 123.189 261.576 125.877 260.66C132.255 266.957 132.774 266.75 137.425 264.187C138.527 266.516 140.579 267.336 143.05 267.154C145.745 266.969 148.437 266.634 151.127 266.632C152.992 266.622 154.859 267.012 156.704 267.329C157.594 267.471 158.441 267.846 158.927 268C160.116 266.293 160.854 264.634 162.098 263.576C163.171 262.672 163.963 263.364 164.819 264.059C165.438 264.562 166.092 265.064 166.912 264.959C168.132 262.066 170.815 261.364 173.498 260.958C180.107 259.953 186.918 260.965 193.435 259.013L193.835 258.962C196.258 260.705 198.678 259.138 201.096 259.106C203.36 259.087 205.646 259.76 207.914 260.131C209.993 258.558 212.18 257.144 214.548 256.714C218.068 256.07 221.821 255.445 225.237 256.103C227.732 256.587 229.854 257.007 232.267 256.166C234.493 255.396 236.718 255.209 238.583 257.423C239.707 258.746 241.153 258.851 243.012 258.455C246.665 257.661 250.447 257.291 254.186 257.118C258.319 256.926 262.424 257.32 266.177 254.702C266.944 254.161 268.13 254.245 269.526 254.326C270.188 254.365 270.895 254.403 271.626 254.377C273.387 252.653 276.039 251.194 279.323 250.908C280.502 250.799 281.592 250.032 282.737 249.588C284.885 248.78 286.991 247.731 289.221 247.246C291.978 246.647 295.058 245.673 297.586 246.402C301.162 247.438 304.251 246.649 307.532 245.967C308.959 245.666 310.566 245.067 311.854 245.45C315.463 246.539 317.743 245.245 319.762 242.242C320.582 240.997 322.166 239.831 323.578 239.557C327.581 238.754 331.683 238.441 335.841 237.924C338.04 233.582 338.786 233.231 343.696 234.517C344.61 234.76 345.481 235.229 346.403 235.412C347.298 235.582 348.258 235.618 349.17 235.546C351.443 235.375 353.703 235.106 355.979 234.887C356.277 234.854 356.621 234.861 356.965 234.866C357.694 234.878 358.423 234.89 358.709 234.529C360.913 231.759 364.193 232.505 366.945 231.694C368.55 231.226 370.549 231.089 372.072 231.656C374.706 232.635 377.295 232.269 379.874 231.901C381.79 231.629 383.7 231.358 385.622 231.634C385.853 231.675 386.144 231.492 386.375 231.346C391.642 228.203 397.272 228.691 403.152 229.665C405.252 227.412 407.504 225.128 411.25 225.821C412.218 226.001 413.351 225.424 414.373 225.09C417.431 224.106 420.448 222.332 423.535 222.25C428.202 222.113 433.178 222.402 436.958 226.008C439.304 228.244 441.476 229.069 443.776 226.491C447.727 228.461 447.826 228.583 449.192 227.484C452.83 224.556 457.454 223.89 461.441 221.755C463.038 220.899 465.006 220.507 466.837 220.416C470.629 220.228 474.394 220.204 478.013 218.711C479.351 218.163 480.951 217.903 482.394 218.019C484.396 218.177 486.41 218.1 488.423 218.023C491.804 217.896 495.184 217.768 498.509 218.749C502.383 219.906 506.543 219.158 510.332 220.923C512.16 221.774 514.27 221.998 516.07 222.899C517.72 223.722 519.186 224.986 520.608 226.222C521.681 227.153 522.559 228.348 523.615 229.526C526.546 224.57 526.781 224.493 531.15 226.434C533.066 225.876 534.685 224.804 535.919 225.171C538.075 225.811 539.954 227.371 541.994 228.434C543.312 229.131 544.674 229.836 546.094 230.182C548.733 230.819 551.43 231.211 554.106 231.704C557.693 232.365 561.273 233.224 564.887 233.613C567.894 233.947 567.925 233.702 569.838 230.612C571.224 231.129 572.999 231.322 574.147 232.291C578.011 235.556 582.253 234.988 586.054 233.183C589.937 231.353 593.883 231.024 597.927 230.93C599.573 230.884 600.704 230.697 601.702 229.256C602.696 227.811 604.06 227.585 605.561 228.833C605.975 229.182 606.796 229.338 607.289 229.172C610.024 228.237 612.779 227.908 615.565 228.84C617.767 229.576 619.737 229.725 621.566 227.874C622.172 227.273 623.207 226.965 624.09 226.806C626.459 226.371 628.858 225.859 631.245 225.84C631.815 225.833 632.392 225.902 632.963 225.97C634.688 226.179 636.372 226.386 637.719 224.544C637.816 224.409 638.237 224.486 638.513 224.52C639.004 224.594 639.507 224.669 640 224.741L616.441 35C615.731 35.1322 615.019 35.2789 614.297 35.4905Z" fill="#F7F4F1"/>
<path d="M630.853 111L624.904 106.858L617.521 46.8285L653.828 72.1073C653.828 72.1073 658.825 78.5862 659.717 82.5879C660.607 86.5847 659.115 90.1883 659.115 90.1883C659.115 90.1883 658.192 90.0171 656.841 89.8145C655.547 89.6216 653.862 89.4045 652.209 89.2863C651.459 89.2332 650.713 89.1995 650.017 89.1995C647.58 89.1995 645.727 89.6023 646.201 90.9144C646.93 92.9454 644.8 95.1139 642.315 96.5201C640.986 97.2727 639.556 97.8058 638.408 97.9843C638.138 98.0253 637.882 98.047 637.648 98.047C637.643 98.047 637.636 98.047 637.629 98.047C637.526 98.0446 637.419 98.0397 637.309 98.0325C635.797 97.9143 633.681 97.1376 632.428 97.1376C632.405 97.1376 632.381 97.1376 632.359 97.1376C631.044 97.1714 630.764 98.1387 633.363 101.834C637.416 107.594 633.693 109.929 631.802 110.691C631.25 110.913 630.853 111 630.853 111ZM556.578 41.4784C554.991 41.4784 553.527 40.8079 552.174 39.2159C550.725 37.4985 548.836 36.7049 546.797 36.7049C546.388 36.7049 545.972 36.7388 545.551 36.8015C542.758 37.1874 539.853 37.5275 537.302 38.637C537.197 38.6829 537.089 38.7262 536.979 38.7648C536.018 37.484 534.978 35.9596 534.203 34.6667C533.431 33.3811 532.921 32.3246 533.01 31.9628C533.275 30.8822 534.954 30.3588 534.954 30.3588L542.655 30.2357C542.655 30.2357 539.879 26.4125 537.553 22.7582C536.663 21.3616 535.841 19.9915 535.262 18.8675C534.581 17.5384 534.236 16.5518 534.528 16.272C535.721 15.1359 540.142 12.4344 540.96 9.19495C541.763 5.95792 540.494 2.54002 541.034 0.383606C541.101 0.118279 541.421 0 541.931 0C545.548 0 558.706 5.87831 558.706 5.87831L604.329 37.6432C603.863 37.6601 603.394 37.6697 602.926 37.6697C599.554 37.6697 596.152 37.2766 592.776 37.0595C592.467 37.0378 592.164 37.0282 591.865 37.0282C590.177 37.0282 588.668 37.3972 587.119 38.5936C585.725 39.667 584.197 40.7187 582.521 40.7187C581.545 40.7187 580.517 40.3617 579.436 39.4426C579.295 39.322 579.101 39.2811 578.872 39.2811C578.59 39.2811 578.255 39.3461 577.913 39.4137C577.569 39.4788 577.22 39.5464 576.907 39.5464C576.873 39.5464 576.842 39.5463 576.809 39.5439C576.639 39.5343 576.467 39.5319 576.295 39.5319C575.551 39.5319 574.795 39.6067 574.042 39.6815C573.289 39.7563 572.538 39.8286 571.802 39.8286C570.119 39.8286 568.514 39.4378 567.139 37.7638C564.603 38.7769 562.202 39.6645 559.856 40.6849C558.709 41.1914 557.618 41.4784 556.578 41.4784Z" fill="#9FADA1"/>
<path d="M625 106L587.79 80.5414L554.943 58.0673L541.652 48.9761L541.102 48.5989C541.102 48.5989 540.815 44.1102 539.831 42.2669C539.675 41.975 539.503 41.752 539.312 41.6192C538.843 41.2989 537.96 40.2811 537 39.0261C537.11 38.9881 537.218 38.9455 537.323 38.9004C539.877 37.8091 542.784 37.4746 545.579 37.095C546 37.0333 546.417 37 546.826 37C548.867 37 550.758 37.7806 552.208 39.4697C553.563 41.0356 555.027 41.6951 556.616 41.6951C557.657 41.6951 558.748 41.4127 559.897 40.9145C562.245 39.911 564.647 39.038 567.186 38.0415C568.562 39.688 570.168 40.0723 571.853 40.0723C572.59 40.0723 573.341 40.0012 574.095 39.9277C574.849 39.8541 575.605 39.7805 576.349 39.7805C576.521 39.7805 576.694 39.7829 576.864 39.7924C576.897 39.7947 576.928 39.7948 576.962 39.7948C577.275 39.7948 577.625 39.7283 577.969 39.6642C578.311 39.5978 578.646 39.5338 578.929 39.5338C579.158 39.5338 579.352 39.5741 579.494 39.6927C580.575 40.5966 581.604 40.9478 582.581 40.9478C584.258 40.9478 585.787 39.9134 587.182 38.8576C588.733 37.6809 590.243 37.318 591.933 37.318C592.232 37.318 592.536 37.3274 592.844 37.3488C596.223 37.5623 599.629 37.949 603.003 37.949C603.472 37.949 603.941 37.9395 604.408 37.9229L617.61 46.9572L625 106Z" fill="#F0F0E5"/>
<mask id="mask0_1_73720" style="mask-type:luminance" maskUnits="userSpaceOnUse" x="23" y="206" width="27" height="86">
<path d="M49.1191 291.453C49.1191 291.453 36.6916 248.197 23.9951 206.475L49.8062 291.237C49.3593 291.381 49.1191 291.453 49.1191 291.453Z" fill="white"/>
</mask>
<g mask="url(#mask0_1_73720)">
<path d="M49.1191 291.453C49.1191 291.453 36.6916 248.197 23.9951 206.475L49.8062 291.237C49.3593 291.381 49.1191 291.453 49.1191 291.453Z" fill="url(#paint1_linear_1_73720)"/>
</g>
<path d="M97 277C96.7646 276.934 96.5105 276.832 96.235 276.684C93.8275 272.562 92.1583 270.17 91 269C92.0646 269.436 93.8944 271.705 97 277Z" fill="#9E977C"/>
<mask id="mask1_1_73720" style="mask-type:luminance" maskUnits="userSpaceOnUse" x="0" y="119" width="49" height="87">
<path d="M23.6222 205.254C11.9252 166.866 0 130.151 0 130.151C0 130.151 0.240311 130.077 0.689639 129.94L23.6222 205.254ZM10.0607 134.75C10.2649 133.861 10.2217 132.444 10.1472 131.026C10.0223 128.702 9.80595 126.379 10.4211 126.379C10.4427 126.379 10.4644 126.381 10.4884 126.388C10.4308 127.289 10.5437 128.702 10.623 130.118C10.7407 132.244 10.7839 134.368 10.0607 134.75ZM46.932 126.379C47.7033 124.915 48.2824 122.921 48.5563 120.206C48.7005 120.083 48.8399 119.956 48.9792 119.826C48.6308 122.847 47.8956 124.937 46.932 126.379Z" fill="white"/>
</mask>
<g mask="url(#mask1_1_73720)">
<path d="M23.6222 205.254C11.9252 166.866 0 130.151 0 130.151C0 130.151 0.240311 130.077 0.689639 129.94L23.6222 205.254ZM10.0607 134.75C10.2649 133.861 10.2217 132.444 10.1472 131.026C10.0223 128.702 9.80595 126.379 10.4211 126.379C10.4427 126.379 10.4644 126.381 10.4884 126.388C10.4308 127.289 10.5437 128.702 10.623 130.118C10.7407 132.244 10.7839 134.368 10.0607 134.75ZM46.932 126.379C47.7033 124.915 48.2824 122.921 48.5563 120.206C48.7005 120.083 48.8399 119.956 48.9792 119.826C48.6308 122.847 47.8956 124.937 46.932 126.379Z" fill="url(#paint2_linear_1_73720)"/>
</g>
<mask id="mask2_1_73720" style="mask-type:luminance" maskUnits="userSpaceOnUse" x="0" y="119" width="65" height="174">
<path d="M50.1326 292.313L49.8059 291.236L23.9948 206.474L23.6223 205.254L0.689719 129.939L0.463867 129.202C0.463867 129.202 1.07414 129.014 2.16262 128.683C2.96516 128.647 3.79416 128.582 4.64476 128.503C7.44645 133.166 8.98672 134.812 9.80848 134.812C9.90219 134.812 9.98624 134.791 10.0607 134.75C10.784 134.368 10.7408 132.244 10.6231 130.117C10.5438 128.702 10.4308 127.289 10.4885 126.388C10.5245 125.795 10.6374 125.425 10.8801 125.425C10.9546 125.425 11.0411 125.458 11.142 125.53C11.4928 125.785 12.0119 126.511 12.7712 127.88C13.6578 129.711 14.912 130.297 16.3177 130.297C17.5768 130.297 18.9584 129.827 20.3112 129.358C21.664 128.887 22.988 128.418 24.1293 128.418C25.41 128.418 26.4625 129.01 27.0728 130.855C27.7792 131.34 28.4664 131.891 29.1368 132.518C29.7135 132.693 30.2781 132.792 30.8307 132.792C31.0205 132.792 31.2105 132.78 31.3979 132.756C32.3158 132.635 33.2047 132.215 34.089 131.376C34.5311 130.958 34.9709 130.437 35.4178 129.807C35.8791 129.514 36.5591 129.442 37.3736 129.442C37.7773 129.442 38.2147 129.461 38.676 129.478C39.135 129.495 39.6179 129.514 40.1129 129.514C42.4677 129.514 45.106 129.11 46.9321 126.378C47.8956 124.937 48.6309 122.846 48.9793 119.826C48.9985 119.655 49.0178 119.482 49.0346 119.307C49.049 119.295 49.0633 119.281 49.0778 119.268L51.5624 146.255C51.1803 146.291 50.7477 146.879 50.3128 147.112C49.258 147.66 48.1816 148.143 47.1123 148.662C46.1944 149.121 45.2597 149.491 44.3154 149.811L58.5329 264.406C59.8713 264.985 61.2169 265.391 62.5649 265.658L64.0401 281.685C63.3674 281.983 62.7883 282.192 62.3173 282.216C57.9658 284.169 56.5193 291.923 52.5667 291.926C52.2951 291.926 52.0093 291.887 51.7114 291.808C50.695 292.142 50.1326 292.313 50.1326 292.313Z" fill="white"/>
</mask>
<g mask="url(#mask2_1_73720)">
<path d="M50.1326 292.313L49.8059 291.236L23.9948 206.474L23.6223 205.254L0.689719 129.939L0.463867 129.202C0.463867 129.202 1.07414 129.014 2.16262 128.683C2.96516 128.647 3.79416 128.582 4.64476 128.503C7.44645 133.166 8.98672 134.812 9.80848 134.812C9.90219 134.812 9.98624 134.791 10.0607 134.75C10.784 134.368 10.7408 132.244 10.6231 130.117C10.5438 128.702 10.4308 127.289 10.4885 126.388C10.5245 125.795 10.6374 125.425 10.8801 125.425C10.9546 125.425 11.0411 125.458 11.142 125.53C11.4928 125.785 12.0119 126.511 12.7712 127.88C13.6578 129.711 14.912 130.297 16.3177 130.297C17.5768 130.297 18.9584 129.827 20.3112 129.358C21.664 128.887 22.988 128.418 24.1293 128.418C25.41 128.418 26.4625 129.01 27.0728 130.855C27.7792 131.34 28.4664 131.891 29.1368 132.518C29.7135 132.693 30.2781 132.792 30.8307 132.792C31.0205 132.792 31.2105 132.78 31.3979 132.756C32.3158 132.635 33.2047 132.215 34.089 131.376C34.5311 130.958 34.9709 130.437 35.4178 129.807C35.8791 129.514 36.5591 129.442 37.3736 129.442C37.7773 129.442 38.2147 129.461 38.676 129.478C39.135 129.495 39.6179 129.514 40.1129 129.514C42.4677 129.514 45.106 129.11 46.9321 126.378C47.8956 124.937 48.6309 122.846 48.9793 119.826C48.9985 119.655 49.0178 119.482 49.0346 119.307C49.049 119.295 49.0633 119.281 49.0778 119.268L51.5624 146.255C51.1803 146.291 50.7477 146.879 50.3128 147.112C49.258 147.66 48.1816 148.143 47.1123 148.662C46.1944 149.121 45.2597 149.491 44.3154 149.811L58.5329 264.406C59.8713 264.985 61.2169 265.391 62.5649 265.658L64.0401 281.685C63.3674 281.983 62.7883 282.192 62.3173 282.216C57.9658 284.169 56.5193 291.923 52.5667 291.926C52.2951 291.926 52.0093 291.887 51.7114 291.808C50.695 292.142 50.1326 292.313 50.1326 292.313Z" fill="#9FADA1"/>
</g>
<path d="M63.9177 282L62.4469 265.9C63.4483 266.1 64.4496 266.221 65.451 266.278C66.5794 266.455 67.71 266.532 68.8384 266.532C72.8583 266.532 76.8591 265.535 80.7448 264.396C81.5042 264.171 82.242 264.007 82.9631 263.896C86.2715 264.021 89.3045 265.19 92.5841 266.706C92.6895 266.158 92.8836 265.721 93.1615 265.393C93.8083 265.644 94.4599 265.914 95.1211 266.199C95.248 265.549 95.502 265.052 95.8781 264.707C96.3405 264.763 96.8221 264.806 97.3036 264.813C99.6154 272.458 101 277.047 101 277.047C101 277.047 100.372 277.237 99.2536 277.58C98.9781 277.665 98.6715 277.759 98.3026 277.759C97.9216 277.759 97.4736 277.66 96.9178 277.358C96.81 277.165 96.7022 276.977 96.5968 276.791C93.8155 271.929 92.1768 269.846 91.2233 269.445C91.1059 269.395 90.9982 269.371 90.9 269.371C90.1142 269.371 89.9513 270.899 89.9585 272.876C89.9609 273.947 90.0135 275.152 90.0399 276.311C88.9355 277.916 85.9865 277.365 83.4255 277.616C82.5679 277.696 81.7534 277.865 81.0539 278.225C80.5939 278.891 80.1004 279.49 79.5806 280.03C79.0631 280.571 78.5145 281.051 77.9491 281.44C75.8865 279.936 73.9005 279.403 72.0535 279.403C69.2146 279.403 66.7111 280.665 64.7922 281.59C64.4856 281.737 64.1932 281.874 63.9177 282ZM52.4833 146.015C52.1886 146.015 51.8821 145.993 51.5658 145.947C51.5491 145.945 51.5322 145.945 51.5154 145.945C51.5035 145.945 51.4892 145.945 51.4772 145.947L49 118.837C49.4672 118.427 49.9128 117.975 50.3297 117.468C51.0603 117.234 51.827 117.072 52.6343 117C52.8188 117.616 53.0247 118.299 53.2523 119.049C54.7639 124.046 57.1501 131.944 60.0704 141.607C57.7251 143.473 55.7294 146.012 52.4833 146.015Z" fill="#9FADA1"/>
<path d="M69.3398 266C68.2273 266 67.1125 265.942 66 265.809C66.4464 265.827 66.8928 265.836 67.3392 265.836C71.0925 265.836 74.8292 265.189 78.4644 264.441C79.9407 264.135 81.3319 264 82.6735 264C82.8719 264 83.0702 264.002 83.2663 264.009C82.5553 264.093 81.8279 264.217 81.0791 264.387C77.2479 265.247 73.3033 266 69.3398 266ZM95.2536 265.748C94.6016 265.533 93.9592 265.329 93.3215 265.139C93.7443 264.758 94.3655 264.572 95.1852 264.572C95.3883 264.572 95.6009 264.583 95.8253 264.605C95.882 264.611 95.941 264.616 96 264.622C95.6292 264.882 95.3788 265.258 95.2536 265.748Z" fill="#D9D5C7"/>
<path d="M93.1962 266C89.8579 264.497 86.7708 263.339 83.4032 263.215C83.2008 263.205 82.9961 263.203 82.7912 263.203C81.4062 263.203 79.97 263.38 78.4459 263.782C74.6931 264.763 70.8354 265.612 66.9607 265.612C66.4998 265.612 66.039 265.6 65.5781 265.576C64.5588 265.519 63.5395 265.399 62.5202 265.201C61.1523 264.935 59.7866 264.531 58.4284 263.954L44 149.843C44.9583 149.525 45.9069 149.156 46.8384 148.699C47.9235 148.183 49.0159 147.702 50.0864 147.156C50.5278 146.924 50.9668 146.338 51.3545 146.302C51.3667 146.3 51.3812 146.3 51.3934 146.3C51.4105 146.3 51.4277 146.3 51.4447 146.302C51.7666 146.347 52.0786 146.369 52.3786 146.369C55.6827 146.367 57.714 143.85 60.1013 142C71.2475 177.914 90.0262 238.427 98 264.124C97.5099 264.117 97.0197 264.074 96.5491 264.019C96.4881 264.012 96.4272 264.004 96.3687 263.997C96.137 263.969 95.9176 263.954 95.7079 263.954C94.8617 263.954 94.2204 264.198 93.7839 264.698C93.501 265.024 93.3035 265.457 93.1962 266Z" fill="#F0F0E5"/>
<defs>
<linearGradient id="paint0_linear_1_73720" x1="-1770" y1="-108.116" x2="942.139" y2="1185.02" gradientUnits="userSpaceOnUse">
<stop stop-color="#777575"/>
<stop offset="1" stop-color="#686566"/>
</linearGradient>
<linearGradient id="paint1_linear_1_73720" x1="-1768.53" y1="-291.429" x2="944.451" y2="998.47" gradientUnits="userSpaceOnUse">
<stop stop-color="#767374"/>
<stop offset="1" stop-color="#676666"/>
</linearGradient>
<linearGradient id="paint2_linear_1_73720" x1="-1768.53" y1="-291.429" x2="944.451" y2="998.474" gradientUnits="userSpaceOnUse">
<stop stop-color="#767374"/>
<stop offset="1" stop-color="#676666"/>
</linearGradient>
</defs>
</svg>
