<svg width="40" height="40" viewBox="0 0 40 40" fill="none" xmlns="http://www.w3.org/2000/svg">
<g id="Fair Working Conditions" clip-path="url(#clip0_1_115367)">
<g id="Group 2118">
<path id="Vector" d="M25.9696 4.54473C22.8014 2.04584 18.3114 4.90964 18.4445 8.5019L18.3993 8.50811C17.6271 6.87123 16.6202 5.77339 14.6653 6.34345C12.7104 6.9135 11.7375 8.99944 11.6671 10.8536C11.4874 15.6943 19.6793 16.2301 19.1123 20.5881C19.1038 20.6273 19.1098 20.6684 19.1294 20.7038C19.1489 20.7393 19.1806 20.7668 19.2188 20.7815C19.2569 20.7961 19.299 20.7969 19.3374 20.7837C19.3759 20.7705 19.4081 20.7442 19.4284 20.7095C19.4666 20.7346 19.5094 20.7521 19.5544 20.761C19.5993 20.7698 19.6455 20.7699 19.6903 20.7612C19.7352 20.7525 19.7777 20.7352 19.8156 20.7102C19.8535 20.6853 19.8859 20.6532 19.911 20.6157C21.0479 18.696 22.077 17.0742 23.762 15.5366C25.0022 14.3931 26.3172 12.9702 26.9719 11.3979C27.9242 9.09866 28.1568 6.26743 25.9696 4.54473ZM26.7457 9.90732C26.696 9.85111 26.6351 9.80563 26.5667 9.7738C26.6975 9.15802 26.8362 8.54742 26.935 7.92308C27.0074 8.59152 26.9431 9.26623 26.7457 9.90732ZM26.7734 7.09756C26.71 7.05063 26.636 7.01959 26.558 7.00715C26.4799 6.99471 26.4001 7.00124 26.3256 7.02618C26.251 7.05113 26.184 7.09371 26.1303 7.15022C26.0767 7.20673 26.038 7.27545 26.0178 7.35036C25.5041 8.76797 25.0845 10.3453 24.1624 11.5679C24.7233 9.5793 25.9463 7.76814 25.5327 5.58265C25.5066 5.49605 25.4556 5.41856 25.3857 5.35965C25.3159 5.30074 25.2303 5.26297 25.1395 5.25094C25.0486 5.23891 24.9564 5.25314 24.8741 5.29191C24.7918 5.33067 24.723 5.39228 24.6761 5.46922C24.5262 5.80793 24.3879 6.14976 24.2496 6.49159C24.3645 5.88609 24.4067 5.26873 24.3752 4.65222C24.3734 4.62793 24.3683 4.60395 24.36 4.58094C25.4206 4.87429 26.3352 5.66628 26.7734 7.09756ZM20.4442 11.7143C20.5348 11.376 20.6373 11.0399 20.7517 10.7059C21.4084 8.68497 22.0947 6.73919 22.2559 4.61602C22.6733 4.50223 23.1065 4.4524 23.5405 4.46829C22.2797 5.68877 21.98 7.41122 21.4813 9.0284C21.1845 9.94165 20.8383 10.8382 20.4442 11.7143ZM20.8589 5.25305C19.5912 8.02084 19.4187 11.3479 17.8101 13.8899C18.2183 12.227 18.715 10.5941 18.8442 8.86872C18.8442 8.86872 18.8442 8.86872 18.8481 8.85447C18.8519 8.84021 18.8481 8.85447 18.8542 8.83166C18.8655 8.11693 19.0541 7.41735 19.4034 6.7937C19.7528 6.17005 20.2524 5.64118 20.8589 5.25305ZM18.0271 8.85144C17.5113 9.68896 17.0417 10.5535 16.6204 11.4414C16.9889 10.3429 17.1482 9.18516 17.0905 8.02602C17.0865 7.94365 17.056 7.8644 17.0034 7.79983C16.9507 7.73526 16.8786 7.68873 16.7976 7.66703C16.7166 7.64532 16.6309 7.64957 16.553 7.67915C16.4751 7.70873 16.409 7.7621 16.3644 7.83149C15.9643 8.40412 15.6033 9.0025 15.2838 9.62272C15.5278 8.67996 15.7076 7.72167 15.822 6.75423C15.8255 6.71993 15.8232 6.68526 15.8153 6.65159C16.8244 6.81197 17.5114 8.03492 18.0126 8.84755L18.0271 8.85144ZM14.9565 6.76675C14.5113 7.45874 14.1471 8.19852 13.8707 8.97215C13.9558 8.45717 14.0292 7.93909 14.0663 7.41736C14.0665 7.39645 14.0648 7.37555 14.0612 7.3549C14.318 7.10938 14.6159 6.90916 14.942 6.76286L14.9565 6.76675ZM13.1076 9.29933C12.9336 10.2274 12.7385 11.1529 12.6263 12.0945C12.5776 11.9284 12.5386 11.7599 12.5095 11.5896C12.6367 10.8092 12.8319 10.0417 13.0931 9.29544L13.1076 9.29933ZM13.5162 13.6407C13.2619 13.3867 13.0501 13.0948 12.8888 12.7759C12.9645 12.7977 13.0452 12.7936 13.1176 12.7641C13.19 12.7346 13.2498 12.6816 13.2871 12.6138C13.7935 11.5486 14.1434 10.4171 14.5671 9.32374C14.2685 10.5423 13.9003 11.7423 13.6351 12.9759C13.5447 13.3947 14.1486 13.6849 14.3627 13.2809C15.0303 12.0206 15.5935 10.7202 16.2777 9.4796C16.0614 11.1694 15.2942 12.7666 15.0486 14.473C15.0286 14.5605 15.0407 14.6525 15.0828 14.7327C15.1249 14.8129 15.1943 14.8761 15.2788 14.9111C15.3633 14.9462 15.4573 14.9509 15.5444 14.9243C15.6314 14.8977 15.7058 14.8417 15.7545 14.766C16.5095 13.5047 17.1016 12.1662 17.7712 10.8637C17.4443 12.3741 16.9714 13.8485 16.6866 15.3763C16.6671 15.4593 16.6753 15.5465 16.7099 15.6251C16.7445 15.7037 16.8038 15.7695 16.8789 15.8129C16.954 15.8563 17.041 15.8749 17.1272 15.8661C17.2134 15.8573 17.2942 15.8215 17.3577 15.7639C18.1238 14.9874 18.7336 14.075 19.1554 13.074C18.8054 14.5079 18.5629 15.9707 18.3462 17.4068C17.8872 16.9771 17.4025 16.5748 16.8948 16.2021C15.7487 15.345 14.5163 14.6359 13.5016 13.6368L13.5162 13.6407ZM19.6057 19.6295C19.5465 19.0927 19.3392 18.5806 19.0064 18.1489C19.0479 18.1207 19.083 18.0843 19.1093 18.0419C19.1357 17.9995 19.1528 17.9521 19.1595 17.9028C19.5968 15.4228 20.7033 13.1984 21.689 10.902C22.3348 9.39764 22.5773 7.41238 23.4594 5.95597C23.2546 7.54496 22.5874 9.05895 22.0117 10.5455C21.1379 12.8077 20.6401 15.2348 20.0166 17.5733C20.0011 17.6353 19.9992 17.6999 20.011 17.7629C20.0228 17.826 20.048 17.8859 20.085 17.9389C20.122 17.9918 20.1699 18.0366 20.2256 18.0701C20.2813 18.1036 20.3435 18.1252 20.4081 18.1334C20.101 18.6114 19.8281 19.11 19.5912 19.6256L19.6057 19.6295ZM22.5703 15.5351C22.2178 15.8567 21.8843 16.1978 21.5713 16.5568C22.0941 15.4358 22.5545 14.2873 22.9508 13.1162C22.9717 13.1872 23.0086 13.2527 23.0588 13.3078C23.109 13.363 23.1711 13.4064 23.2405 13.4347C23.3099 13.463 23.3848 13.4755 23.4595 13.4713C23.5342 13.467 23.6068 13.4462 23.6719 13.4103C24.4244 12.835 25.0434 12.1085 25.4881 11.2784C25.5688 11.3577 25.6723 11.4106 25.7844 11.4296C25.8964 11.4487 26.0114 11.433 26.1133 11.3848C25.2103 13.0006 23.7619 14.4335 22.5616 15.5327L22.5703 15.5351Z" fill="#884F56"/>
<path id="Vector_2" d="M16.3817 21.4164C14.8701 21.5166 15.7502 25.1084 16.3764 27.0118C13.809 23.9301 6.3492 16.1491 4.28011 20.0909C4.26635 20.1221 4.26021 20.1562 4.26222 20.1903C4.26422 20.2243 4.27431 20.2574 4.29164 20.2868C4.30898 20.3162 4.33306 20.3411 4.3619 20.3593C4.39074 20.3776 4.42351 20.3887 4.45749 20.3918C4.44237 20.4799 4.44197 20.57 4.45632 20.6582C4.14102 20.4528 3.76231 20.3678 3.3895 20.4188C3.0167 20.4698 2.67476 20.6534 2.42628 20.936C2.24934 21.1988 2.16657 21.5137 2.19146 21.8295C2.21634 22.1454 2.34741 22.4434 2.56332 22.6753C2.22749 22.652 1.89219 22.7273 1.59856 22.892C1.30494 23.0566 1.06576 23.3034 0.910371 23.6021C0.76719 23.9152 0.729542 24.2663 0.803091 24.6026C0.876639 24.939 1.05741 25.2424 1.31819 25.4671C1.33256 25.5287 1.36604 25.5841 1.41382 25.6254C1.68985 25.8611 1.96136 26.0981 2.24191 26.3326C1.95667 26.4224 1.69714 26.5794 1.48512 26.7903C1.27309 27.0012 1.11475 27.2599 1.0234 27.5447C0.936453 27.9515 0.984221 28.3756 1.1595 28.7529C1.33479 29.1302 1.62806 29.4402 1.99502 29.6361C5.21904 32.8911 9.21838 35.2717 13.6163 36.5536C13.6451 36.5633 13.6757 36.5667 13.706 36.5635C17.8612 38.1503 21.645 33.1151 20.6417 29.0094C20.6338 28.9781 20.6189 28.949 20.5981 28.9244C20.5772 28.8998 20.551 28.8803 20.5214 28.8675C20.4375 26.8283 19.8885 24.8352 18.9165 23.0406C18.5026 22.2901 17.2495 20.4483 16.3817 21.4164ZM19.5345 26.1414C19.8623 27.3649 19.99 28.6179 20.2207 29.8578C20.2662 31.6167 19.9616 33.3146 18.6753 34.6706C18.0684 35.2986 17.3108 35.7606 16.4746 36.0126C15.6385 36.2646 14.7518 36.2982 13.8989 36.1101C13.8615 36.0587 13.809 36.0203 13.7486 36.0004C11.3413 35.2819 9.06019 34.1937 6.9869 32.7747C5.21781 31.5889 3.6256 30.0702 1.79792 28.9728C1.66641 28.8081 1.57036 28.618 1.51581 28.4144C1.46127 28.2108 1.4494 27.9982 1.48096 27.7898C1.54593 27.4872 1.72737 27.2224 1.98605 27.0525C2.24474 26.8827 2.55988 26.8216 2.86332 26.8823C4.75522 28.5593 6.81852 30.0323 9.01903 31.2769C9.05412 31.2973 9.09552 31.3039 9.13521 31.2954C9.17489 31.287 9.21002 31.2641 9.23377 31.2312C9.25752 31.1983 9.2682 31.1577 9.26372 31.1174C9.25924 31.077 9.23992 31.0398 9.20954 31.0129C6.93869 28.9115 4.29195 27.1044 1.84283 25.1862C1.79784 25.1495 1.74351 25.126 1.68593 25.1183C1.62834 25.1107 1.56977 25.1192 1.51676 25.143C1.3851 24.9612 1.30047 24.7496 1.2704 24.5271C1.24034 24.3047 1.26579 24.0783 1.34448 23.868C1.49547 23.5845 1.7458 23.3667 2.04747 23.2564C2.34914 23.1461 2.68092 23.1511 2.97918 23.2703C3.00262 23.2682 3.02553 23.2621 3.04689 23.2522C5.39842 25.3659 7.87281 27.5047 10.6111 29.0937C10.7554 29.1809 10.9014 28.9675 10.7794 28.8551C8.34826 26.6611 5.69109 24.7067 3.22089 22.5475C3.16379 22.5004 3.09188 22.4751 3.01792 22.476C2.92243 22.3994 2.84365 22.304 2.78641 22.1957C2.72917 22.0874 2.69469 21.9686 2.68509 21.8465C2.67549 21.7244 2.69097 21.6017 2.73059 21.4858C2.7702 21.3699 2.83311 21.2634 2.91543 21.1728C3.44551 20.6775 4.21689 21.0466 4.647 21.4782C4.6802 21.5113 4.72296 21.5332 4.76924 21.5407C4.81552 21.5483 4.86301 21.5412 4.90503 21.5203C5.05635 21.6879 5.22121 21.8518 5.38938 22.01C7.46135 23.9469 9.96338 25.575 12.1998 27.3131C12.4318 27.4929 12.7504 27.1655 12.516 26.9767C11.4801 26.18 4.36505 21.5634 4.9717 19.9637C7.79072 18.0082 15.0845 26.1627 16.7135 27.9812C16.7208 28.0083 16.7268 28.0309 16.7317 28.0489C16.8445 28.2897 17.2302 28.104 17.1649 27.8602C16.8744 26.9025 15.4094 23.1141 16.2556 21.9389C16.2999 21.9741 16.356 21.9908 16.4123 21.9856C16.4685 21.9805 16.5207 21.9538 16.5578 21.9112C17.6048 20.7451 19.4038 25.6538 19.5345 26.1414Z" fill="#884F56"/>
<path id="Vector_3" d="M22.9369 21.4164C24.4485 21.5166 23.5684 25.1084 22.9422 27.0118C25.5096 23.9301 32.9694 16.1491 35.0385 20.0909C35.0523 20.1221 35.0584 20.1562 35.0564 20.1903C35.0544 20.2243 35.0443 20.2574 35.027 20.2868C35.0096 20.3162 34.9855 20.3411 34.9567 20.3593C34.9279 20.3776 34.8951 20.3887 34.8611 20.3918C34.8762 20.4799 34.8766 20.57 34.8623 20.6582C35.1776 20.4528 35.5563 20.3678 35.9291 20.4188C36.3019 20.4698 36.6438 20.6534 36.8923 20.936C37.0693 21.1988 37.152 21.5137 37.1271 21.8295C37.1023 22.1454 36.9712 22.4434 36.7553 22.6753C37.0911 22.652 37.4264 22.7273 37.72 22.892C38.0137 23.0566 38.2528 23.3034 38.4082 23.6021C38.5514 23.9152 38.5891 24.2663 38.5155 24.6026C38.442 24.939 38.2612 25.2424 38.0004 25.4671C37.986 25.5287 37.9526 25.5841 37.9048 25.6254C37.6288 25.8611 37.3572 26.0981 37.0767 26.3326C37.3619 26.4224 37.6215 26.5794 37.8335 26.7903C38.0455 27.0012 38.2039 27.2599 38.2952 27.5447C38.3822 27.9515 38.3344 28.3756 38.1591 28.7529C37.9838 29.1302 37.6905 29.4402 37.3236 29.6361C34.0996 32.8911 30.1002 35.2717 25.7024 36.5536C25.6735 36.5633 25.6429 36.5667 25.6126 36.5635C21.4574 38.1503 17.6736 33.1151 18.677 29.0094C18.6848 28.9781 18.6997 28.949 18.7205 28.9244C18.7414 28.8998 18.7677 28.8803 18.7972 28.8675C18.8811 26.8283 19.4301 24.8352 20.4021 23.0406C20.816 22.2901 22.0691 20.4483 22.9369 21.4164ZM19.7841 26.1414C19.4563 27.3649 19.3286 28.6179 19.0979 29.8578C19.0524 31.6167 19.357 33.3146 20.6433 34.6706C21.2502 35.2986 22.0078 35.7606 22.844 36.0126C23.6801 36.2646 24.5668 36.2982 25.4197 36.1101C25.4571 36.0587 25.5096 36.0203 25.57 36.0004C27.9773 35.2819 30.2584 34.1937 32.3317 32.7747C34.1008 31.5889 35.693 30.0702 37.5207 28.9728C37.6522 28.8081 37.7482 28.618 37.8028 28.4144C37.8573 28.2108 37.8692 27.9982 37.8376 27.7898C37.7727 27.4872 37.5912 27.2224 37.3325 27.0525C37.0739 26.8827 36.7587 26.8216 36.4553 26.8823C34.5634 28.5593 32.5001 30.0323 30.2996 31.2769C30.2645 31.2973 30.2231 31.3039 30.1834 31.2954C30.1437 31.287 30.1086 31.2641 30.0848 31.2312C30.0611 31.1983 30.0504 31.1577 30.0549 31.1174C30.0594 31.077 30.0787 31.0398 30.1091 31.0129C32.3799 28.9115 35.0267 27.1044 37.4758 25.1862C37.5208 25.1495 37.5751 25.126 37.6327 25.1183C37.6903 25.1107 37.7488 25.1192 37.8018 25.143C37.9335 24.9612 38.0181 24.7496 38.0482 24.5271C38.0783 24.3047 38.0528 24.0783 37.9741 23.868C37.8231 23.5845 37.5728 23.3667 37.2711 23.2564C36.9695 23.1461 36.6377 23.1511 36.3394 23.2703C36.316 23.2682 36.2931 23.2621 36.2717 23.2522C33.9202 25.3659 31.4458 27.5047 28.7075 29.0937C28.5632 29.1809 28.4172 28.9675 28.5392 28.8551C30.9703 26.6611 33.6275 24.7067 36.0977 22.5475C36.1548 22.5004 36.2267 22.4751 36.3007 22.476C36.3962 22.3994 36.475 22.304 36.5322 22.1957C36.5894 22.0874 36.6239 21.9686 36.6335 21.8465C36.6431 21.7244 36.6276 21.6017 36.588 21.4858C36.5484 21.3699 36.4855 21.2634 36.4032 21.1728C35.8731 20.6775 35.1017 21.0466 34.6716 21.4782C34.6384 21.5113 34.5956 21.5332 34.5494 21.5407C34.5031 21.5483 34.4556 21.5412 34.4136 21.5203C34.2623 21.6879 34.0974 21.8518 33.9292 22.01C31.8573 23.9469 29.3552 25.575 27.1188 27.3131C26.8868 27.4929 26.5682 27.1655 26.8026 26.9767C27.8385 26.18 34.9536 21.5634 34.3469 19.9637C31.5279 18.0082 24.2341 26.1627 22.6051 27.9812C22.5978 28.0083 22.5918 28.0309 22.5869 28.0489C22.4741 28.2897 22.0884 28.104 22.1537 27.8602C22.4442 26.9025 23.9092 23.1141 23.063 21.9389C23.0188 21.9741 22.9626 21.9908 22.9063 21.9856C22.8501 21.9805 22.7979 21.9538 22.7608 21.9112C21.7138 20.7451 19.9148 25.6538 19.7841 26.1414Z" fill="#884F56"/>
</g>
</g>
<defs>
<clipPath id="clip0_1_115367">
<rect width="40" height="40" fill="white"/>
</clipPath>
</defs>
</svg>
