<svg width="40" height="40" viewBox="0 0 40 40" fill="none" xmlns="http://www.w3.org/2000/svg">
<g id="Sustainable Materials" clip-path="url(#clip0_1_115375)">
<g id="Group 2120">
<g id="Group 2119">
<path id="Vector" fill-rule="evenodd" clip-rule="evenodd" d="M32.7523 17.1951C31.7166 16.8344 30.3326 16.4398 29.2366 16.4602H27.6252L25.9405 17.1216C23.377 18.0035 22.791 18.5914 22.2783 20.2816L21.8389 21.4574L21.0332 21.0899C19.2753 20.1346 19.3485 20.1346 15.7596 20.355H10.2662H8.06888V19.9876C8.06888 19.0323 8.06887 18.9588 6.01803 18.9588C4.49156 18.9047 2.96466 19.0529 1.47686 19.3997C1.47686 19.3997 1.47687 20.0611 1.91633 19.9876H2.50229C2.81529 19.9127 3.14147 19.9127 3.45447 19.9876H3.66071C3.95609 19.8238 4.28476 19.7226 4.62638 19.6937H5.43207V20.0611C5.39676 20.5258 5.39676 20.9926 5.43207 21.4574C5.06585 22.6331 4.9926 23.368 4.26016 23.368L3.015 24.7643C2.20931 25.6461 2.28256 25.6461 3.45447 24.7643C4.62638 23.8824 4.91936 23.368 4.91936 23.368C4.51808 25.0543 4.2971 26.7788 4.26016 28.5121V29.9819L3.08824 31.3781C2.72012 31.8235 2.37775 32.2897 2.06282 32.7744C2.48585 32.3898 2.87772 31.972 3.23473 31.5251C4.26015 30.7167 4.26016 30.2023 4.26016 30.7167V31.6721V33.0683H3.38122H2.76511L2.42904 33.5092H-0.281006C-0.281006 33.8767 -0.281007 33.8767 1.18388 33.9502H4.26016C5.94478 33.9502 6.09127 33.9502 6.311 33.0683V32.6274H7.55616L11.1451 32.113L13.9284 31.7456C14.5123 31.6747 15.1025 31.6747 15.6863 31.7456H17.0047L18.3231 32.26C19.0566 32.5725 19.8165 32.8185 20.5937 32.9948L22.4981 33.6562C23.9246 34.302 25.4743 34.628 27.0392 34.6115C28.5149 34.3641 29.9312 33.8407 31.2142 33.0683L33.4115 31.7456C34.3048 31.2289 35.1189 30.5854 35.8286 29.8349C36.4128 29.1243 37.0764 28.4832 37.8062 27.9242C38.7581 27.3643 39.562 26.583 40.15 25.6461C40.2343 25.2836 40.2343 24.9064 40.15 24.5438V23.662C39.8529 23.5186 39.5275 23.4442 39.1978 23.4442C38.8682 23.4442 38.5427 23.5186 38.2456 23.662H37.6597H37.147C37.147 23.662 36.8605 23.662 36.5574 22.9657C36.1844 23.499 35.7423 23.9803 35.2426 24.3968C33.7045 25.7931 32.6058 26.6749 32.8255 26.381C32.8255 26.381 32.3128 26.381 32.8255 25.8666C33.0039 25.6423 33.1517 25.3951 33.265 25.1317C32.9942 25.4114 32.7714 25.7342 32.6058 26.087C32.16 26.6861 31.6703 27.2511 31.1409 27.7772C30.1155 28.8061 29.969 29.0265 30.262 29.3205C30.555 29.6144 30.262 29.3205 31.3606 28.5856L33.558 27.6303C34.4537 27.0285 35.2879 26.3393 36.0483 25.5726C37.8062 23.9559 38.3921 23.515 38.9781 23.515C39.564 23.515 40.15 24.3968 38.9781 25.5726C38.252 26.2838 37.44 26.901 36.561 27.4098C36.8375 26.8402 37.1478 26.2878 37.4901 25.7554L36.7075 26.9689C35.8466 28.7191 34.4643 30.1573 32.7523 31.0842L30.7747 32.26L29.969 32.7744C29.9221 32.6061 29.9221 32.4282 29.969 32.26C29.585 32.7974 29.0492 33.2069 28.4309 33.4358H27.6984L29.0168 32.0395C30.6282 30.4963 30.4085 30.6432 28.5041 32.0395C26.5998 33.4358 27.1125 33.2153 26.4533 33.2888C25.5971 33.2869 24.7502 33.1119 23.9629 32.7744H22.791C22.1318 32.7744 21.9853 32.3334 22.0586 32.113H21.1064H20.374L18.9091 31.0842L18.0628 30.8011C17.9039 30.8546 17.7655 30.9418 17.7372 31.0842H15.3201L15.8328 30.7167L16.4188 30.3493L15.6863 30.7167C15.2953 30.9937 14.8427 31.1703 14.3679 31.2311C14.0533 31.1715 13.7303 31.1715 13.4157 31.2311H12.903L13.6355 30.4228L14.5876 29.6144C13.9745 29.9849 13.4088 30.4291 12.903 30.9372C12.633 31.1707 12.3031 31.3234 11.9508 31.3781H11.5846L12.1706 30.9372C12.6833 30.4228 12.1706 30.9372 11.5846 30.9372C11.3194 30.9972 11.0442 30.9972 10.7789 30.9372C10.5322 31.1031 10.26 31.2273 9.97323 31.3046C10.3453 30.891 10.763 30.5212 11.2184 30.2023L11.5846 29.3205C11.5846 29.3205 10.7057 29.8349 9.82675 30.6432C8.94781 31.4516 8.36185 31.6721 8.14212 31.5986C8.28776 31.2743 8.48574 30.9763 8.72807 30.7167C9.24078 30.2023 9.53376 29.9084 9.31403 30.0553C8.90907 30.3541 8.54035 30.6994 8.21536 31.0842C7.48292 31.819 7.40967 31.8925 6.60398 31.966H5.6518L6.38425 31.3046L7.77589 30.0553L8.43509 29.394L7.55616 30.1288L5.94478 31.4516L5.21234 32.0395V31.4516C5.21234 31.4516 5.21233 30.9372 6.311 30.1288C7.40967 29.3205 8.4351 28.3651 7.99563 28.6591L6.4575 29.8349L5.13909 30.7167C5.06259 30.2545 5.06259 29.7827 5.13909 29.3205C5.33019 29.0472 5.58063 28.8211 5.87154 28.6591L7.18994 27.5568C7.99563 26.8219 7.70265 26.9689 6.311 28.0712L5.28558 28.8796C5.28558 28.8796 5.28558 28.3651 6.38425 27.6303L7.84914 26.3075L5.50532 28.1447C5.50532 28.1447 5.50531 27.5568 6.67723 26.7484L7.84914 25.7196L7.26318 26.1605L6.09127 27.0424L5.50532 27.4833C5.50532 27.1159 5.50532 26.9689 6.16452 26.6014L7.40968 25.6461C7.99563 25.0582 7.40967 25.2052 6.9702 25.6461L6.01803 26.3075C6.01803 26.3075 6.01803 25.7931 6.9702 25.2787C7.92238 24.7643 8.06888 24.3968 8.28861 24.2499C8.50834 24.1029 8.28861 24.2499 7.92239 24.2499L6.09127 25.6461C6.1005 24.7708 6.24886 23.9025 6.53074 23.0741C6.56281 22.8548 6.56281 22.632 6.53074 22.4127H10.2662H16.0525C17.9569 20.8695 18.3964 20.9429 19.4218 21.3839L19.2753 21.2369L21.3261 22.4127C21.9477 22.8043 22.611 23.1248 23.3037 23.368L24.2559 23.8089H25.3546C26.1889 24.0566 27.0493 24.2046 27.9181 24.2499H28.9922C28.9879 24.1764 28.9839 24.1029 28.9802 24.0294H27.4787V20.649V18.7236L27.259 20.5755V17.489H27.4787V17.2686H28.2111H29.0168H29.8225L29.969 17.636C30.1603 18.804 30.1603 19.9954 29.969 21.1634V24.3817C30.3474 24.5295 30.6282 24.7674 30.6282 24.9112C30.6282 25.1317 30.6282 26.0136 29.969 26.234C28.7304 26.4149 27.4722 26.4149 26.2335 26.234C26.1668 26.2623 26.096 26.2793 26.0239 26.2844L26.2335 26.6749C25.9938 26.7406 25.7408 26.7406 25.5011 26.6749C24.8419 26.6749 24.8419 26.6749 25.5011 26.0136H25.1349C24.5489 26.0136 23.8165 26.4545 23.8165 26.0136L24.4757 25.5726L25.0616 25.1317H24.3292C24.001 25.3603 23.6253 25.5111 23.2305 25.5726L21.7656 24.9847C20.6669 24.3968 20.374 24.3968 20.5205 24.9847C20.6669 25.5726 21.8389 26.0136 22.5713 26.234C24.3492 26.6993 26.1619 27.0188 27.9914 27.1894H29.6028H30.7014C30.9212 27.1894 31.0677 27.1894 32.0931 26.234L32.3528 25.9801C34.9722 23.4192 35.3181 23.0809 35.3891 23.2945V22.8536C35.4863 22.7873 35.6011 22.7518 35.7187 22.7518C35.8363 22.7518 35.9511 22.7873 36.0483 22.8536H36.5109C36.4538 22.7094 36.3967 22.5395 36.3413 22.3392C36.3513 21.3844 36.0963 20.4456 35.6048 19.6279C35.1132 18.8102 34.4045 18.146 33.558 17.7095C32.972 17.7095 32.6791 17.2686 32.7523 17.1951ZM26.5998 23.8824V23.368H25.8673C25.8673 23.2977 25.5323 22.5552 25.8235 20.2401C25.8039 19.6904 25.8185 19.1397 25.8673 18.5914V18.1504H26.38H27.0392V21.0164C26.673 22.2657 26.673 23.7355 26.673 23.7355L26.5998 23.8824ZM31.6926 18.6201C31.7019 18.4389 31.7134 18.2579 31.7269 18.0769H32.1663V25.0582L31.6536 25.4991L31.1409 26.0136V25.6461C31.2247 25.4084 31.2247 25.149 31.1409 24.9112C30.9815 23.6671 30.9815 22.4076 31.1409 21.1634V17.7095C31.1409 17.7095 31.5057 17.8315 31.6926 18.6201ZM24.4024 20.796C24.4655 21.6276 24.4655 22.4629 24.4024 23.2945V21.4574V20.796V19.1058V18.2974C24.4906 19.0783 24.5395 19.8632 24.5489 20.649L24.4024 20.796ZM32.972 21.6778C33.1264 20.6302 33.1264 19.5655 32.972 18.5179L32.6058 18.2974C32.5371 19.4477 32.5371 20.601 32.6058 21.7513V24.6173H32.972V21.6778ZM23.9629 19.0323C23.9104 20.4125 23.7636 21.7875 23.5235 23.1476C23.5197 23.1226 23.5161 23.0977 23.5126 23.0727C23.4444 23.0593 23.0772 22.9158 23.0108 21.3839V22.8536L22.4981 22.4862H21.9853V21.7513C21.9853 21.3839 21.9853 21.0164 22.3516 21.0164C22.3207 20.7479 22.3207 20.4766 22.3516 20.2081C22.3516 19.8406 22.7178 19.7671 22.791 20.2081C22.791 20.2081 23.1573 19.5467 23.3037 19.5467C23.4502 19.5467 24.1094 18.6648 24.1094 18.8853L23.9629 19.0323ZM34.0707 21.4574V19.0323L33.558 18.3709V20.4285V23.368V23.9559C34.0707 23.5885 34.0707 23.515 34.0707 21.4574ZM6.53074 19.9141V19.8406L6.5716 19.8611C6.65117 19.7573 6.70354 19.6854 6.73627 19.6383C6.77987 19.5569 6.81518 19.525 6.73627 19.6383C6.69623 19.7132 6.6492 19.8298 6.67723 19.9141L6.5716 19.8611C6.5587 19.878 6.5451 19.8956 6.53074 19.9141V20.5755C6.53074 20.5755 6.01803 20.5755 6.53074 19.9141ZM34.7299 21.3839C34.8828 20.8809 34.8828 20.3436 34.7299 19.8406L34.8764 20.0611C34.8481 19.9541 34.7983 19.854 34.7299 19.7672C34.667 20.844 34.667 21.9237 34.7299 23.0006V21.3839ZM35.3159 20.796V21.2369L35.4623 21.4574C35.4391 21.232 35.3899 21.01 35.3159 20.796ZM4.84611 33.0683C5.35883 33.5827 5.35882 33.4358 5.35882 33.0683L5.57856 32.7744C5.57856 32.6274 5.57856 32.5539 5.21234 32.4804C4.84611 32.4069 4.3334 32.5539 4.84611 33.0683Z" fill="#884F56"/>
</g>
<path id="Vector_2" d="M26.5451 9.92025C26.5069 9.00376 26.4083 8.08408 26.4491 7.17237C26.503 6.51769 26.6369 5.87281 26.8478 5.25108C26.9467 4.96602 27.1387 4.72095 27.3955 4.55224C28.0813 4.11696 28.6651 4.36768 28.7668 5.15806C28.8375 5.71738 28.7383 6.29359 28.725 6.86367C28.7117 7.43375 28.7079 7.96975 28.6979 8.72796C29.5791 8.00361 30.2524 7.43113 30.9497 6.88671C31.1871 6.7027 31.4867 6.46498 31.7604 6.47696C32.1816 6.49326 32.7167 6.59396 32.979 6.8619C33.1678 7.05361 33.1276 7.66341 32.9497 7.93989C32.4788 8.67668 31.93 9.36367 31.312 9.99013C30.6613 10.6449 29.8897 11.1898 29.1803 11.7914C28.8863 12.0343 28.654 12.339 28.5009 12.6829C28.3478 13.0267 28.2777 13.4009 28.2959 13.7776C28.397 16.6329 28.5183 19.4888 28.6944 22.341C28.731 22.9398 29.0541 23.5214 29.1967 24.1215C29.2568 24.3707 29.1882 24.6466 29.1732 25.0709C28.3579 24.6491 28.2826 24.0537 28.2313 23.5228C28.0077 21.3723 27.7978 19.2252 27.6569 17.0762C27.5594 15.5458 27.587 14.0102 27.5532 12.2181C27.046 11.9577 26.363 11.5058 25.613 11.2379C23.7345 10.5674 21.5028 8.39507 21.8076 5.81664C21.852 5.67004 21.9153 5.52963 21.9958 5.39862C24.5849 5.91522 25.1766 8.21334 26.5451 9.92025ZM22.5678 6.61686C22.7643 8.44067 23.6565 9.77561 25.6215 10.5842C24.8717 8.93217 24.4193 7.30895 22.5678 6.61686ZM32.2971 7.23798C30.6128 7.4707 29.0417 9.23478 29.133 10.7847C30.3502 9.725 31.9411 9.02824 32.2971 7.23798ZM28.1667 4.93283C26.9322 5.83881 27.0455 6.88642 27.0326 7.86485C27.0146 9.21958 27.2975 10.0559 27.8755 10.582C27.9667 8.78473 28.0633 7.01386 28.1667 4.93283Z" fill="#884F56"/>
</g>
</g>
<defs>
<clipPath id="clip0_1_115375">
<rect width="40" height="40" fill="white"/>
</clipPath>
</defs>
</svg>
